/* XPM */
static char * classic2_xpm[] = {
"82 39 218 2",
"  	c None",
". 	c #00AAFF",
"+ 	c #00ABFF",
"@ 	c #00ACFF",
"# 	c #01ACFF",
"$ 	c #4EC5FF",
"% 	c #84D6FF",
"& 	c #7CD4FF",
"* 	c #3BBFFF",
"= 	c #0BAFFF",
"- 	c #03ADFF",
"; 	c #6FD0FF",
"> 	c #EDF9FF",
", 	c #FEFEFF",
"' 	c #D4F1FF",
") 	c #09AFFF",
"! 	c #87D8FF",
"~ 	c #BEE9FF",
"{ 	c #BCE9FF",
"] 	c #54C7FF",
"^ 	c #1DB5FF",
"/ 	c #CFEFFF",
"( 	c #FFFFFF",
"_ 	c #A7E2FF",
": 	c #08AEFF",
"< 	c #FDFEFF",
"[ 	c #6ECFFF",
"} 	c #2DBAFF",
"| 	c #EAF8FF",
"1 	c #CBEEFF",
"2 	c #13B2FF",
"3 	c #17B3FF",
"4 	c #C1EAFF",
"5 	c #9ADEFF",
"6 	c #05ADFF",
"7 	c #5BC9FF",
"8 	c #D4F0FF",
"9 	c #FCFEFF",
"0 	c #FBFDFF",
"a 	c #BBE8FF",
"b 	c #14B2FF",
"c 	c #1FB6FF",
"d 	c #29B9FF",
"e 	c #BFEAFF",
"f 	c #82D6FF",
"g 	c #3DBFFF",
"h 	c #7BD4FF",
"i 	c #80D5FF",
"j 	c #49C3FF",
"k 	c #2FBBFF",
"l 	c #5DCAFF",
"m 	c #57C8FF",
"n 	c #21B6FF",
"o 	c #26B8FF",
"p 	c #44C1FF",
"q 	c #36BDFF",
"r 	c #7ED5FF",
"s 	c #DDF4FF",
"t 	c #D5F1FF",
"u 	c #41C1FF",
"v 	c #50C6FF",
"w 	c #45C2FF",
"x 	c #50C5FF",
"y 	c #46C2FF",
"z 	c #52C6FF",
"A 	c #D7F1FF",
"B 	c #E8F7FF",
"C 	c #6ACEFF",
"D 	c #66CDFF",
"E 	c #F6FCFF",
"F 	c #97DCFF",
"G 	c #94DCFF",
"H 	c #06AEFF",
"I 	c #FAFDFF",
"J 	c #EEF9FF",
"K 	c #63CCFF",
"L 	c #93DBFF",
"M 	c #EFF9FF",
"N 	c #64CCFF",
"O 	c #06ADFF",
"P 	c #92DBFF",
"Q 	c #65CDFF",
"R 	c #0AAFFF",
"S 	c #ACE4FF",
"T 	c #C9EDFF",
"U 	c #19B4FF",
"V 	c #D9F2FF",
"W 	c #74D1FF",
"X 	c #D0EFFF",
"Y 	c #8DD9FF",
"Z 	c #02ACFF",
"` 	c #8EDAFF",
" .	c #15B2FF",
"..	c #CCEEFF",
"+.	c #8FDAFF",
"@.	c #CEEFFF",
"#.	c #E5F6FF",
"$.	c #27B8FF",
"%.	c #4BC4FF",
"&.	c #F9FDFF",
"*.	c #A1E0FF",
"=.	c #8CD9FF",
"-.	c #F4FBFF",
";.	c #F7FCFF",
">.	c #EBF8FF",
",.	c #D7F2FF",
"'.	c #55C7FF",
").	c #81D6FF",
"!.	c #DAF2FF",
"~.	c #07AEFF",
"{.	c #34BDFF",
"].	c #E6F7FF",
"^.	c #28B9FF",
"/.	c #42C1FF",
"(.	c #4CC4FF",
"_.	c #95DCFF",
":.	c #0DB0FF",
"<.	c #2CBAFF",
"[.	c #D2F0FF",
"}.	c #28B8FF",
"|.	c #24B7FF",
"1.	c #5AC9FF",
"2.	c #5ECAFF",
"3.	c #4AC4FF",
"4.	c #77D2FF",
"5.	c #39BEFF",
"6.	c #3FC0FF",
"7.	c #53C6FF",
"8.	c #6DCFFF",
"9.	c #4DC4FF",
"0.	c #CEEEFF",
"a.	c #A6E1FF",
"b.	c #E1F5FF",
"c.	c #E0F4FF",
"d.	c #1EB5FF",
"e.	c #22B7FF",
"f.	c #C2EBFF",
"g.	c #9CDEFF",
"h.	c #D6F1FF",
"i.	c #3EC0FF",
"j.	c #0EB0FF",
"k.	c #1AB4FF",
"l.	c #10B1FF",
"m.	c #11B1FF",
"n.	c #32BCFF",
"o.	c #5FCAFF",
"p.	c #23B7FF",
"q.	c #7DD4FF",
"r.	c #C3EBFF",
"s.	c #AAE3FF",
"t.	c #9DDFFF",
"u.	c #AEE4FF",
"v.	c #009BF2",
"w.	c #007ADA",
"x.	c #0079D9",
"y.	c #009FF5",
"z.	c #00ABFE",
"A.	c #84D7FF",
"B.	c #72D1FF",
"C.	c #89D8FF",
"D.	c #00A4F9",
"E.	c #0031A5",
"F.	c #000080",
"G.	c #005FC6",
"H.	c #B9E8FF",
"I.	c #D1F0FF",
"J.	c #007BDB",
"K.	c #00108B",
"L.	c #002A9F",
"M.	c #001992",
"N.	c #E2F5FF",
"O.	c #D3F0FF",
"P.	c #E6F6FF",
"Q.	c #005EC6",
"R.	c #009CF3",
"S.	c #00A5FA",
"T.	c #0096EF",
"U.	c #001C94",
"V.	c #003BAB",
"W.	c #18B4FF",
"X.	c #BDE9FF",
"Y.	c #1CB5FF",
"Z.	c #00A7FB",
"`.	c #002DA2",
" +	c #0037A9",
".+	c #8BD9FF",
"++	c #79D3FF",
"@+	c #90DAFF",
"#+	c #03ACFF",
"$+	c #0099F1",
"%+	c #000986",
"&+	c #0060C7",
"*+	c #B4E6FF",
"=+	c #2BB9FF",
"-+	c #1BB4FF",
";+	c #B7E7FF",
">+	c #001F97",
",+	c #000C89",
"'+	c #CBEDFF",
")+	c #2EBAFF",
"!+	c #0030A3",
"~+	c #000A87",
"{+	c #0094ED",
"]+	c #16B3FF",
"^+	c #000583",
"/+	c #0086E3",
"(+	c #005AC3",
"_+	c #0080DF",
":+	c #007CDB",
"<+	c #00AAFE",
"[+	c #0045B3",
"}+	c #001891",
"|+	c #00A1F7",
"1+	c #0063C9",
"2+	c #0030A4",
"3+	c #002FA3",
"4+	c #0049B6",
"5+	c #00A6FB",
"                              . + @ + @ + + + + + + + + + + + + + + + + + + + + + + + + + + + + + + + + + + + + + + + + + @ + + @ +                                 ",
"                        + + @ @ @ @ @ @ @ @ @ @ @ @ @ @ @ @ @ @ @ @ @ @ @ @ @ @ @ @ @ @ @ @ @ @ @ @ @ @ @ @ @ @ @ @ @ @ @ @ @ @ @ @ + + @                           ",
"                    + + @ @ @ @ @ @ @ @ @ @ @ @ @ @ @ @ @ @ @ @ @ @ @ @ @ @ @ @ @ @ @ @ @ @ @ @ @ @ @ @ @ @ @ @ @ @ @ @ @ @ @ @ @ @ @ @ @ + +                       ",
"                . @ @ @ @ @ @ @ @ @ @ @ @ @ @ @ @ @ @ @ @ @ @ @ @ @ @ @ @ @ @ @ @ @ @ @ @ @ @ @ @ @ @ @ @ @ @ @ @ @ @ @ @ @ @ @ @ @ @ @ @ @ @ + +                   ",
"              @ + @ @ @ @ @ @ @ @ @ @ @ @ @ @ @ @ @ @ @ @ @ @ @ @ @ @ @ @ @ @ @ @ @ @ @ @ @ @ @ @ @ @ @ @ @ @ @ @ @ @ @ @ @ @ @ @ @ @ @ @ @ @ @ + +                 ",
"            @ @ @ @ @ @ @ @ @ @ @ @ @ @ @ @ @ @ @ @ @ @ @ @ @ @ @ @ @ @ @ @ @ @ @ @ @ @ @ @ @ @ @ @ @ @ @ @ @ @ @ @ @ @ @ @ # $ % & * @ @ @ @ @ @ @ +               ",
"          @ @ @ @ @ @ @ @ = = = = - @ @ @ @ @ @ @ @ @ @ @ @ @ @ @ @ @ @ @ @ @ @ @ @ @ @ @ @ @ @ @ @ @ @ @ @ @ @ @ @ @ @ @ @ ; > , , ' $ @ @ @ @ @ @ @ @             ",
"        @ @ @ @ @ @ @ @ ) ! ~ ~ { ] @ @ @ @ @ @ @ @ @ @ @ @ @ @ @ @ @ @ @ @ @ @ @ @ @ @ @ @ @ @ @ @ @ @ @ @ @ @ @ @ @ @ @ ^ / ( ( ( ( _ : @ @ @ @ @ @ @ +           ",
"      . + @ @ @ @ @ @ @ ) { ( ( < [ @ @ @ @ @ @ @ @ @ @ @ @ @ @ @ @ @ @ @ @ @ @ @ @ @ @ @ @ @ @ @ @ @ @ @ @ @ @ @ @ @ @ @ } | ( ( ( ( 1 2 @ @ @ @ @ @ @ + +         ",
"      @ @ @ @ @ @ @ @ @ ) { ( ( < [ @ @ @ @ @ @ @ @ @ @ @ @ @ @ @ @ @ @ @ @ @ @ @ @ @ @ @ @ @ @ @ @ @ @ @ @ @ @ @ @ @ @ @ 3 4 ( ( ( ( 5 6 @ @ @ @ @ @ @ @ +         ",
"    + @ @ @ @ @ @ @ @ @ ) { ( ( < [ @ @ @ @ @ @ @ @ @ @ @ @ @ @ @ @ @ @ @ @ @ @ @ @ @ @ @ @ @ @ @ @ @ @ @ @ @ @ @ # @ @ @ @ 7 8 9 0 a * @ @ @ @ @ @ @ @ @ @ +       ",
"    + @ @ @ @ @ b c c c d e ( ( < f c c c c - @ @ @ @ @ @ @ @ @ @ @ @ @ @ @ @ @ @ @ @ @ @ @ @ @ @ @ @ @ @ @ @ g h i j @ @ @ @ k l m n @ @ @ @ o p q : @ @ @ +       ",
"  + @ @ @ @ @ # r s s s s 0 ( ( ( | s s s t u @ @ @ @ @ @ @ @ @ @ b v w # @ @ b x w # @ @ 2 x y # @ @ @ @ @ z A , ( B C @ @ @ @ @ @ @ @ @ @ D 8 E > F 3 @ @ @ .     ",
"  + @ @ @ @ @ # G ( ( ( ( ( ( ( ( ( ( ( ( E y @ @ @ @ @ @ @ @ @ H G I J K @ H L I M N @ O P I M Q @ @ @ @ R S ( ( ( ( T U @ @ @ @ @ @ @ @ } V ( ( ( , W @ @ @ @     ",
"  @ @ @ @ @ @ # G ( ( ( ( ( ( ( ( ( ( ( ( E y @ @ @ @ @ @ @ @ @ 3 X ( , Y Z 3 / ( ( ` -  ...( ( +.Z @ @ @ b @.( ( ( ( #.$.@ @ @ @ @ @ @ @ %.&.( ( ( ( *.6 @ @ @     ",
". @ @ @ @ @ @ # =.-.-.-.-., ( ( ( ;.-.-.-.>.w @ @ @ @ @ @ @ @ @ Z f J ,.'.@ Z ).J V '.@ Z i J !.m @ @ @ @ ~.*.( ( ( ( { b @ @ @ @ @ @ @ @ {.].( ( ( , r @ @ @ @ .   ",
"+ @ @ @ @ @ @ @ ^./././.(.T ( ( < _././././.:.@ @ @ @ @ @ @ @ @ @ H q <.@ @ @ O q } @ @ @ 6 q } @ @ @ @ @ @ u 4 0 9 [.m @ @ @ @ @ @ @ @ @ # h >.< &.S }.@ @ @ @ +   ",
"@ @ @ @ @ @ @ @ @ @ @ @ ) { ( ( < [ @ @ @ @ @ @ @ @ @ @ @ @ @ @ @ @ @ @ @ @ @ @ @ @ @ @ @ @ @ @ @ @ @ @ @ @ @ |.1.2.k @ @ @ @ 3.r 4.5.@ @ @ # 6.K 7.3 @ @ @ @ @ +   ",
"+ @ @ @ @ @ @ @ @ @ @ @ ) { ( ( < [ @ @ @ @ @ @ @ @ @ @ @ @ @ @ @ @ @ @ @ @ @ @ @ @ @ @ @ @ @ @ @ @ @ @ @ @ @ @ @ @ @ @ @ @ 8.>., , [.9.@ @ @ @ @ @ @ @ @ @ @ @ @   ",
"+ @ @ @ @ @ @ @ @ @ @ @ ) { ( ( < [ @ @ @ @ @ @ @ @ @ @ @ @ @ @ @ @ @ @ @ @ @ @ @ @ @ @ @ @ @ @ @ @ @ @ @ @ @ @ @ @ @ @ @ ^ 0.( ( ( ( a.: @ @ @ @ @ @ @ @ @ @ @ @   ",
"+ @ @ @ @ @ @ @ @ @ @ @ ) *.b.b.c.K @ @ @ @ @ @ @ @ @ @ @ @ @ @ @ @ @ @ @ @ @ @ @ @ @ @ @ @ @ @ @ @ @ @ @ @ @ @ @ @ @ @ @ } | ( ( ( ( 1 2 @ @ @ @ @ @ @ @ @ @ @ @   ",
"@ @ @ @ @ @ @ @ @ @ @ @ @ d.e.e.e.:.@ @ @ @ @ @ @ @ @ @ @ @ @ @ @ @ @ @ @ @ @ @ @ @ @ @ @ @ @ @ @ @ @ @ @ @ @ @ @ @ @ @ @ 3 f.( ( ( ( g.6 @ @ @ @ @ @ @ @ @ @ @ +   ",
"+ @ @ @ @ @ @ @ @ @ @ @ @ @ @ @ @ @ @ @ @ @ @ @ @ @ @ @ @ @ @ @ @ @ @ @ @ @ @ @ @ @ @ @ @ @ @ @ @ @ @ @ @ @ @ @ @ @ @ @ @ @ l h.< 0 ~ i.@ @ @ @ @ @ @ @ @ @ @ @ @   ",
"+ @ @ @ @ @ @ @ @ @ @ @ @ @ @ @ @ @ @ @ @ @ @ @ @ @ @ j.k.l.@ @ @ @ @ @ @ @ @ @ @ @ @ @ @ @ @ @ j.k.m.@ @ @ @ @ @ @ @ @ @ @ @ n.o.1.p.@ @ @ @ @ @ @ @ @ @ @ @ @ +   ",
"  + @ @ @ @ @ @ @ @ @ @ @ @ @ @ @ @ @ @ @ @ @ @ @ 3 4.~ A f.q.c @ @ @ @ @ @ @ @ @ @ @ @ @ @  .W { A r.i e.@ @ @ @ @ @ @ @ @ @ @ @ @ @ @ @ @ @ @ @ @ @ @ @ @ @ +     ",
"  + @ @ @ @ @ @ @ @ @ @ @ @ @ @ @ @ @ @ @ @ @ @ 3 *.< ( ( ( , s.e.@ @ @ @ @ @ @ @ @ @ @ @ b t.< ( ( ( , u.o @ @ @ @ @ @ @ @ v.w.x.y.@ z.@ @ @ @ @ @ @ @ @ @ @ +     ",
"  + @ @ @ @ @ @ @ @ @ @ @ @ @ @ @ @ @ @ @ @ @ @ 4.< ( ( ( ( ( , A.# @ @ @ @ @ @ @ @ @ @ @ B.< ( ( ( ( ( , C.# @ @ @ @ @ D.E.F.F.F.F.G.@ @ @ @ @ @ @ @ @ @ @ @ @     ",
"    + @ @ @ @ @ @ @ @ @ @ @ @ @ @ @ @ @ @ @ @ j.~ ( ( ( ( ( ( ( ..3 @ @ @ @ @ @ @ @ @ @ :.H.( ( ( ( ( ( ( I.k.@ @ @ @ @ J.F.K.L.M.F.F.w.@ @ @ @ @ @ @ @ @ @ @       ",
"    . @ @ @ @ @ @ @ @ @ @ @ @ @ @ @ @ @ @ @ @ k.A ( ( ( ( ( ( ( N.|.@ @ @ @ @ @ @ @ @ @ 3 O.( ( ( ( ( ( ( P.d @ @ @ @ @ @ Q.R.S.T.U.F.V.@ @ @ @ @ @ @ @ @ @ @       ",
"      + @ @ @ @ @ @ @ @ @ @ @ @ @ @ @ @ @ @ @ l.f.( ( ( ( ( ( ( X W.@ @ @ @ @ @ @ @ @ @ j.X.( ( ( ( ( ( ( t Y.@ @ @ @ @ @ @ @ @ Z.`.F. +@ @ @ @ @ @ @ @ @ +         ",
"      + + @ @ @ @ @ @ @ @ @ @ @ @ @ @ @ @ @ @ @ q., ( ( ( ( ( , .+Z @ @ @ @ @ @ @ @ @ @ @ ++, ( ( ( ( ( , @+#+@ @ @ @ @ @ @ @ @ $+%+F.&+@ @ @ @ @ @ @ @ + @         ",
"        . @ @ @ @ @ @ @ @ @ @ @ @ @ @ @ @ @ @ @ c s., ( ( ( , *+=+@ @ @ @ @ @ @ @ @ @ @ @ -+a., ( ( ( , ;+k @ @ @ @ @ @ @ @ @ @ >+F.,+@ @ @ @ @ @ @ @ @ +           ",
"          + @ @ @ @ @ @ @ @ @ @ @ @ @ @ @ @ @ @ @ e.A...N.X .+=+@ @ @ @ @ @ @ @ @ @ @ @ @ @ c f '+N.I.Y )+@ @ @ @ @ @ @ @ @ S.!+F.~+{+@ @ @ @ @ @ @ @ +             ",
"            @ @ @ @ @ @ @ @ @ @ @ @ @ @ @ @ @ @ @ @ # 3 |.W.Z @ @ @ @ @ @ @ @ @ @ @ @ @ @ @ @ @ ]+|.U Z @ @ @ @ @ @ @ @ @ @ `.F.^+/+@ @ @ @ @ @ @ @ +               ",
"              + + @ @ @ @ @ @ @ @ @ @ @ @ @ @ @ @ @ @ @ @ @ @ @ @ @ @ @ @ @ @ @ @ @ @ @ @ @ @ @ @ @ @ @ @ @ @ @ @ @ @ @ D.>+F.F.(+_+:+/+<+@ @ @ + +                 ",
"                + @ @ @ @ @ @ @ @ @ @ @ @ @ @ @ @ @ @ @ @ @ @ @ @ @ @ @ @ @ @ @ @ @ @ @ @ @ @ @ @ @ @ @ @ @ @ @ @ @ @ @ [+F.F.F.F.F.F.}+|+@ @ + @                   ",
"                    + + @ @ @ @ @ @ @ @ @ @ @ @ @ @ @ @ @ @ @ @ @ @ @ @ @ @ @ @ @ @ @ @ @ @ @ @ @ @ @ @ @ @ @ @ @ @ @ @ 1+2+3+3+3+3+3+4+5++ +                       ",
"                        + + @ @ @ @ @ @ @ @ @ @ @ @ @ @ @ @ @ @ @ @ @ @ @ @ @ @ @ @ @ @ @ @ @ @ @ @ @ @ @ @ @ @ @ @ @ @ @ @ @ @ @ @ @ @ @                           ",
"                              + + + @ + + + + + + + + + + + + + + + + + + + + + + + + + + + + + + + + + + + + + + + + + + + @ + + +                                 "};
