/* XPM */
static char * classic1_xpm[] = {
"74 33 380 2",
"  	c None",
". 	c #C0C0C0",
"+ 	c #AEB2B1",
"@ 	c #B6BABA",
"# 	c #C0C4C4",
"$ 	c #C7CDCD",
"% 	c #D3D6D6",
"& 	c #CFD6D6",
"* 	c #D4DADA",
"= 	c #D3D8D8",
"- 	c #CFD5D5",
"; 	c #C6CBCB",
"> 	c #A8AFAF",
", 	c #BEBFBF",
"' 	c #ABB2B1",
") 	c #C7CECE",
"! 	c #CDD5D5",
"~ 	c #D3D9D9",
"{ 	c #D5DADA",
"] 	c #D0D6D6",
"^ 	c #D1D4D4",
"/ 	c #C6CBCA",
"( 	c #BFC5C4",
"_ 	c #B7BBBA",
": 	c #ABAFAE",
"< 	c #BFBFBF",
"[ 	c #B4B8B7",
"} 	c #BCC1C1",
"| 	c #F5F6F6",
"1 	c #FFFFFF",
"2 	c #F7F7F7",
"3 	c #EEEEEE",
"4 	c #E9E9E9",
"5 	c #E9E8E9",
"6 	c #ECECEC",
"7 	c #9DA8A9",
"8 	c #B3B5B5",
"9 	c #B5B7B7",
"0 	c #B8BABA",
"a 	c #ACB1B2",
"b 	c #C5CFCE",
"c 	c #D9DEDE",
"d 	c #CBD2D3",
"e 	c #C1C8C9",
"f 	c #A1ABAA",
"g 	c #BCBFBF",
"h 	c #B1B8B8",
"i 	c #AFB7B8",
"j 	c #AEB7B8",
"k 	c #B4BCBC",
"l 	c #BDBFBF",
"m 	c #A9B3B3",
"n 	c #C0C6C6",
"o 	c #C9D0D1",
"p 	c #D7DDDD",
"q 	c #C4CECE",
"r 	c #B7B9B9",
"s 	c #BCBEBE",
"t 	c #B7BABA",
"u 	c #98A5A5",
"v 	c #EEEEED",
"w 	c #EDEDED",
"x 	c #EAEAEA",
"y 	c #E9E8E8",
"z 	c #E8E8E8",
"A 	c #F5F5F5",
"B 	c #FAFAFA",
"C 	c #B8C0C0",
"D 	c #B3B6B6",
"E 	c #ADB0B0",
"F 	c #F0F1F1",
"G 	c #F9F9F9",
"H 	c #D2D2D2",
"I 	c #D0D0D1",
"J 	c #E2E1E1",
"K 	c #FDFDFD",
"L 	c #F8F8F8",
"M 	c #EAEBEB",
"N 	c #E0E2E2",
"O 	c #D7DBDB",
"P 	c #D4D8D8",
"Q 	c #C5CBCB",
"R 	c #CCCACB",
"S 	c #D4D4D4",
"T 	c #CBC9CA",
"U 	c #AAAFAF",
"V 	c #ADB6B6",
"W 	c #ACB7B7",
"X 	c #B5BDBD",
"Y 	c #B0B8B9",
"Z 	c #A0AAAB",
"` 	c #C9C9CA",
" .	c #C6C7C7",
"..	c #A5AEAE",
"+.	c #B5BBBC",
"@.	c #B9BFBF",
"#.	c #ABB7B7",
"$.	c #ADB5B4",
"%.	c #CBCBCB",
"&.	c #D3D2D3",
"*.	c #CCCBCB",
"=.	c #D9DCDC",
"-.	c #E2E4E4",
";.	c #EEEEEF",
">.	c #FCFCFC",
",.	c #E7E6E6",
"'.	c #CECDCD",
").	c #F0F0F0",
"!.	c #F3F5F5",
"~.	c #B2B6B5",
"{.	c #B0B5B4",
"].	c #DADADA",
"^.	c #E0E0E0",
"/.	c #DFDFDF",
"(.	c #D9D9D9",
"_.	c #B4B9B8",
":.	c #A7ACAB",
"<.	c #DBDFDE",
"[.	c #D7DDDC",
"}.	c #BFC0C0",
"|.	c #9EA5A4",
"1.	c #F7F8F8",
"2.	c #F6F6F6",
"3.	c #F9FAFA",
"4.	c #ACB1B0",
"5.	c #A4AAA9",
"6.	c #F1F1F0",
"7.	c #F3F3F2",
"8.	c #ECEBEA",
"9.	c #FBFAF9",
"0.	c #E5E5E4",
"a.	c #E2E2E1",
"b.	c #F4F4F4",
"c.	c #D7D7D7",
"d.	c #B8BAB9",
"e.	c #A6ABAA",
"f.	c #FEFEFE",
"g.	c #EFEFED",
"h.	c #C5C4C2",
"i.	c #A4A3A1",
"j.	c #E7E6E4",
"k.	c #E4E4E2",
"l.	c #E1E1DF",
"m.	c #D1D1CF",
"n.	c #FBFBFB",
"o.	c #D5D5D5",
"p.	c #ADB1B0",
"q.	c #C9C9C9",
"r.	c #E4E4E4",
"s.	c #C8C8C8",
"t.	c #ABABA9",
"u.	c #CECDCC",
"v.	c #A9A9A8",
"w.	c #F9F8F7",
"x.	c #D6D5D4",
"y.	c #C1C1BF",
"z.	c #CCCCCC",
"A.	c #D0D0D0",
"B.	c #A8ADAC",
"C.	c #BABBBA",
"D.	c #D2D7D6",
"E.	c #C4C3C1",
"F.	c #FFFEFC",
"G.	c #E6E6E6",
"H.	c #D3D3D3",
"I.	c #D8DDDC",
"J.	c #BEBEBE",
"K.	c #B7BAB9",
"L.	c #FFFFFD",
"M.	c #E4E4E3",
"N.	c #FEFEFF",
"O.	c #FFFEFF",
"P.	c #ACB0AF",
"Q.	c #BCBCBC",
"R.	c #CED4D2",
"S.	c #BBBBBB",
"T.	c #EBEBEB",
"U.	c #EFEFEF",
"V.	c #E7E7E7",
"W.	c #DFE0DF",
"X.	c #D4D7D6",
"Y.	c #F1F1F1",
"Z.	c #E5E5E5",
"`.	c #DCDCDC",
" +	c #B6B6B6",
".+	c #ADADAD",
"++	c #A9A9A9",
"@+	c #C6C6C6",
"#+	c #D5DAD8",
"$+	c #B0B4B3",
"%+	c #DDDDDD",
"&+	c #ADD9EC",
"*+	c #5BB5DA",
"=+	c #D6D6D6",
"-+	c #A4A4A4",
";+	c #C1C1C1",
">+	c #C1C1C0",
",+	c #BABCBC",
"'+	c #C0C3C2",
")+	c #DEDEDC",
"!+	c #EAEAE8",
"~+	c #C7C7C5",
"{+	c #CFCFCE",
"]+	c #EDEDEC",
"^+	c #C6C6C4",
"/+	c #EBEBE9",
"(+	c #FEFEFC",
"_+	c #F7F7F5",
":+	c #E3E3E2",
"<+	c #E3E2DE",
"[+	c #92D2EB",
"}+	c #6FBEE3",
"|+	c #BEBCB7",
"1+	c #E1E1E1",
"2+	c #C0BFBF",
"3+	c #B6B6B4",
"4+	c #B4B4B2",
"5+	c #A6ADAB",
"6+	c #C9CECD",
"7+	c #FFFFFE",
"8+	c #DDDDDB",
"9+	c #FEFEFD",
"0+	c #ECECEA",
"a+	c #D9D9D7",
"b+	c #FCFDFD",
"c+	c #BBBCBA",
"d+	c #B9BEBB",
"e+	c #F8F8F6",
"f+	c #CDCDCD",
"g+	c #C9C8C8",
"h+	c #ACACAC",
"i+	c #B2B2B1",
"j+	c #C0C5C4",
"k+	c #D1D6D5",
"l+	c #BDBCBA",
"m+	c #E7E7E6",
"n+	c #DBDBDB",
"o+	c #C2C2C2",
"p+	c #B4B4B4",
"q+	c #E3E3E3",
"r+	c #D7D8D8",
"s+	c #DDE0DF",
"t+	c #E8E8E7",
"u+	c #F3F3F3",
"v+	c #B8B8B8",
"w+	c #DFE2E1",
"x+	c #D3D3D1",
"y+	c #B2B2B2",
"z+	c #C7C7C7",
"A+	c #FAF9FA",
"B+	c #D5D9D8",
"C+	c #C3C2C0",
"D+	c #D2D2D0",
"E+	c #B3B3B3",
"F+	c #B9B9B9",
"G+	c #CED3D2",
"H+	c #EFEFEE",
"I+	c #D9D8D7",
"J+	c #DEDDDC",
"K+	c #B5B5B4",
"L+	c #D2D2D1",
"M+	c #FDFDFC",
"N+	c #D9D9D8",
"O+	c #B7B7B6",
"P+	c #C7CDCC",
"Q+	c #C2C6C5",
"R+	c #B9B9B7",
"S+	c #AFAFAD",
"T+	c #D5D5D3",
"U+	c #E0E0DE",
"V+	c #CBCBC9",
"W+	c #A1A19F",
"X+	c #CACAC8",
"Y+	c #F2F2F2",
"Z+	c #A9A9A7",
"`+	c #C4C4C2",
" @	c #DCDCDA",
".@	c #ADADAB",
"+@	c #B3B8B7",
"@@	c #BABEBD",
"#@	c #B8B8B6",
"$@	c #DADAD8",
"%@	c #FAFAF8",
"&@	c #F9F9F7",
"*@	c #FAFAF9",
"=@	c #E3E3E1",
"-@	c #D5D5D4",
";@	c #A5A5A5",
">@	c #D0D0CE",
",@	c #DFDFDD",
"'@	c #FCFCFA",
")@	c #F6F6F4",
"!@	c #BEBEBD",
"~@	c #B7B7B7",
"{@	c #B1B6B4",
"]@	c #AEB1B0",
"^@	c #F3F4F4",
"/@	c #F5F5F3",
"(@	c #B9B9B8",
"_@	c #B1B1AF",
":@	c #DBDBDA",
"<@	c #B2B2B0",
"[@	c #B9BABA",
"}@	c #BABEBE",
"|@	c #ABABAB",
"1@	c #EDEDEB",
"2@	c #C0C0BF",
"3@	c #C8C8C6",
"4@	c #F6F6F5",
"5@	c #AAB2B0",
"6@	c #B1B4B4",
"7@	c #CDCDCB",
"8@	c #E2E2E0",
"9@	c #A7A7A5",
"0@	c #F8F8F7",
"a@	c #CECECC",
"b@	c #BBBCBB",
"c@	c #AFB4B3",
"d@	c #E0E0DF",
"e@	c #A6A6A4",
"f@	c #CCCCCA",
"g@	c #A3ABA8",
"h@	c #C7CECD",
"i@	c #A6A6A5",
"j@	c #E6E6E4",
"k@	c #F0F0EE",
"l@	c #D8D8D6",
"m@	c #C5C5C4",
"n@	c #C3C3C1",
"o@	c #F7F7F6",
"p@	c #D1D5D4",
"q@	c #B5B7B6",
"r@	c #C3C3C3",
"s@	c #CFCFCD",
"t@	c #F3F3F1",
"u@	c #B3B3B1",
"v@	c #E9E9E8",
"w@	c #DCDFDE",
"x@	c #D8DBDB",
"y@	c #B5B5B3",
"z@	c #D6D6D4",
"A@	c #F2F2F0",
"B@	c #FDFDFB",
"C@	c #B8B8B7",
"D@	c #D7DBDA",
"E@	c #B0B4B2",
"F@	c #C9CDCC",
"G@	c #E6E6E5",
"H@	c #BFBFBD",
"I@	c #BDBDBB",
"J@	c #BBBBB9",
"K@	c #C6C9C9",
"L@	c #B3B6B5",
"M@	c #FDFEFD",
"N@	c #C4C4C4",
"O@	c #A7A7A7",
"P@	c #FDFEFE",
"Q@	c #E2E3E3",
"R@	c #A7AEAD",
"S@	c #9FA6A5",
"T@	c #D0D4D3",
"U@	c #F1F2F2",
"V@	c #FAFBFB",
"W@	c #F7F8F7",
"X@	c #F1F3F3",
"Y@	c #F0F2F2",
"Z@	c #F1F1F2",
"`@	c #EEF0F0",
" #	c #ECEEEF",
".#	c #ECEEEE",
"+#	c #EBEEEE",
"@#	c #EEEFEF",
"##	c #EFF0F0",
"$#	c #EBEDEE",
"%#	c #EDEFEF",
"&#	c #EFF0F1",
"*#	c #F0F3F3",
"=#	c #F9FAF9",
"-#	c #EFF1F1",
";#	c #9BA4A3",
". . . . . . . . . . + @ # $ % & * = - ; > . . . . . . . . . . . . . . , . . . . . . . . . . . . . . . . . ' ) ! ~ { ] ^ / ( _ : < . . . . . . . . . ",
". . . . . . . . [ } | 1 1 2 3 4 5 6 6 3 7 8 9 0 , a b c d e f g . . . h i j k g . . l m n o p q r s t 9 8 u v w x y z w A 1 1 B C D . . . . . . . . ",
". . . . . . . E F G w H I J K 1 1 1 1 K L M N O P Q R S S T U V W X Y Z `  ...+.@.#.$.D %.S &.*.$ ~ =.-.;.>.1 1 1 1 1 1 ,.'.H ).G !.~.. . . . . . . ",
". . . . . . . {.].^.1 1 1 1 1 1 1 1 1 1 1 1 1 1 1 1 1 1 1 1 1 1 1 1 1 1 1 1 1 1 1 1 1 1 1 1 1 1 1 1 1 1 1 1 1 1 1 1 1 1 1 1 1 1 /.(._.. . . . . . . ",
". . . . . . :.<.1 1 1 1 1 1 1 1 1 1 1 1 1 1 1 1 1 1 1 1 1 1 1 1 1 1 1 1 1 1 1 1 1 1 1 1 1 1 1 1 1 1 1 1 1 1 1 1 1 1 1 1 1 1 1 1 1 1 [.: }.. . . . . ",
". . . . . |.1.1 1 1 1 1 1 1 1 1 1 1 1 1 1 1 1 1 1 1 1 1 1 1 1 1 1 1 1 1 1 1 1 1 1 1 1 1 1 1 1 1 1 1 1 1 1 1 1 1 1 1 2.1 1 1 1 1 1 1 1 3.4.. . . . . ",
". . . < 5.>.1 1 1 1 1 1 1 1 1 1 1 1 1 1 1 1 1 1 1 1 1 1 1 1 1 1 1 6.7.8.9.0.v a.1 1 1 1 1 1 1 1 1 1 1 1 1 1 1 1 ^.x A b.c.1 1 1 1 1 1 1 3.d.. . . . ",
". . . e.f.1 1 1 1 1 1 1 1 f.f.f.1 1 1 1 1 1 1 1 1 1 1 1 1 1 1 1 1 g.h.i.j.k.l.m.1 1 1 1 1 1 1 1 1 1 1 1 1 1 1 1 x 1 K n.n.o.1 1 1 1 1 1 1 G p.. . . ",
". . ~.B 1 1 1 1 1 1 1 1 q.r.r.s.1 1 1 1 1 1 1 1 1 1 1 1 1 1 1 1 1 f.t.u.v.w.x.y.1 1 1 1 1 1 1 1 1 1 1 1 1 1 1 1 b.1 z.b.1 A.1 1 1 1 1 1 1 1 | B.. . ",
". C.D.1 1 1 1 1 1 1 1 1 E.F.G.H.1 1 1 1 1 1 1 1 1 1 1 1 1 1 1 1 1 1 4 n./.K ).4 1 1 1 1 1 1 1 1 1 1 1 1 1 1 1 1 w 1 L 2.K H.1 1 1 1 1 1 1 1 1 I.J.. ",
". K.1 1 1 1 1 1 1 1 1 1 E.L.M.H.1 1 1 1 1 1 1 1 1 1 1 1 1 1 1 1 1 1 1 1 N.O.1 1 1 1 1 1 1 1 1 1 1 1 b.G.x 1 1 1 (.6 1 n.].1 1 1 1 A B 1 1 1 1 f.P.. ",
"Q.R.1 1 1 1 1 1 L 6 6 6 S.f.n.H.T.6 6 U.f.1 1 1 1 1 1 1 1 f.x o.V.1 1 n.W.X.L 1 1 Y.c.Z.1 1 1 1 1 Z.G.1 G H.1 1 1 ).c.`.1 1 1 B  +.+++@+>.1 1 1 #+Q.",
"$+1 1 1 1 1 1 1 %+f.f.f.1 1 1 1 1 f.f.4 f.1 1 1 1 1 1 1 1 K w 2.T.x 1 Z.&+*+C.1 1 ^.z T.V.1 1 1 1 z 1 n.n.n.=+1 1 1 1 1 1 1 f.-+;+;+>+;+@+f.1 1 1 ,+",
"'+1 1 1 1 1 1 1 )+!+~+{+1 1 1 1 ]+^+m./+L.1 1 1 1 1 1 1 1 >.b.(+_+:+1 <+[+}+|+f.1 1+V.2.(.1 1 1 1 x 1 H.b.1 2+1 1 1 1 1 1 1 L < ;+3+4+>+. f.1 1 1 5+",
"6+1 1 1 1 1 1 7+8+L.(+(+K 1 1 f.9+(+(+0+9+1 1 1 1 1 1 1 1 f.1+y.a+K 1 b+c+d+e+7+1 Z.. f+f.1 1 1 1 z 1 %+1 f.g+1 1 1 1 1 1 1 B h+;+i+3+>+J.f.1 1 1 j+",
"k+1 1 1 1 1 1 1 7.^.^.^.l+(+f.c.^.^.^.m+1 1 1 1 1 1 1 1 1 2 (.4 ^.z f.2.S o.n+1 1 ]./.H B 1 1 1 1 n+U.f.1 %.1 1 1 f.f.f.1 1 1 A.J.o+;+p+q+1 1 1 1 r+",
"s+1 1 1 1 1 1 1 1 1 1 1 E.L.t+H.1 1 1 1 1 1 1 1 1 1 1 1 1 K G G G K f.f.B B L 1 1 B n.n.1 1 1 1 1 1 u+).).K 1 1 n.v+S.Q.< K 1 1 Z.S.< 6 1 1 1 1 1 A ",
"w+1 1 1 1 1 1 1 1 1 1 1 E.(+k.x+1 1 1 1 1 1 1 1 1 1 1 1 1 1 1 1 1 1 1 1 1 1 1 1 1 1 1 1 1 1 1 1 1 1 1 1 1 1 1 1 y+;+< o+J.z+1 1 1 1 1 1 1 1 1 1 1 A+",
"B+1 1 1 1 1 1 1 1 1 1 1 C+(+e+D+7+1 1 1 1 1 1 1 1 1 1 f.1 1 1 1 1 1 1 1 1 1 1 1 1 1 1 1 1 1 K f.1 1 1 1 1 1 1 1 . ;+E+F+;+y+1 1 1 1 1 1 1 1 1 1 1 G.",
"G+1 1 1 1 1 1 1 1 1 1 1 H+I+I+J+7+1 1 1 1 1 1 7+7+H+z+K+L+M+7+1 1 1 1 1 1 1 1 1 1 1 1 7+M+N+O+< q+f.1 1 1 1 1 1 S.;+ +v+;+y+1 1 1 1 1 1 1 1 1 1 1 P+",
"Q+1 1 1 1 1 1 1 1 1 1 1 1 1 1 1 1 1 1 1 1 1 1 k.R+S+T+U+V+W+X+Y+1 1 1 1 1 1 1 1 1 1 e+D+Z+`+U+ @R+.@N+f.1 1 1 1 @+Q.;+o+ +G.1 1 1 1 1 1 1 1 1 1 1 +@",
"@@1 1 1 1 1 1 1 1 1 1 1 1 1 1 1 1 1 1 1 1 1 K #@$@]+%@&@*@=@-@;@f.1 1 1 1 1 1 1 1 1 ^+>@,@'@%@&@)@8+!@S 1 1 1 1 K (.E+~@T.1 1 1 1 1 1 1 1 1 1 1 1 {@",
"]@^@1 1 1 1 1 1 1 1 1 1 1 1 1 1 1 1 1 1 1 1 F+>@/@w 2 1 ).A 6 (@0.1 1 1 1 1 1 1 1 f._@l.G z K K V.>.:@<@7+1 1 1 1 1 1 1 1 1 1 1 1 1 1 1 1 1 1 1 >.[@",
". }@1 1 1 1 1 1 1 1 1 1 1 1 1 1 1 1 1 1 1 1 |@!+1@K 1 1 1 >.n. @2@f.1 1 1 1 1 1 1 z.3@'@x 1 1 1 f.w H+3+4@1 1 1 1 1 1 1 1 1 1 1 1 1 1 1 1 1 1 1 5@. ",
". 6@1 1 1 1 1 1 1 1 1 1 1 1 1 1 1 1 1 1 1 z 7@b.b.1 1 1 1 1 U.8@9@0@1 1 1 1 1 1 1 p+)+2.f.1 1 1 1 ).M+a@i+1 1 1 1 1 1 1 1 1 1 1 1 1 1 1 1 1 1 n.b@. ",
". < c@1 1 1 1 1 1 1 1 1 1 1 1 1 1 1 1 1 1 U.^+b.u+1 1 1 1 1 Y.d@e@G 1 1 1 1 1 1 1 y+8+2.f.1 1 1 1 U.M+f@O+1 1 1 1 1 1 1 1 1 1 1 1 1 1 1 1 1 1 g@< . ",
". . Q.h@1 1 1 1 1 1 1 1 1 1 1 1 1 1 1 1 1 1 i@j@k@B 1 1 1 2 n.l@m@f.1 1 1 1 1 1 1 H.n@o@T.1 1 1 f.3 v 3+/@1 1 1 1 1 1 1 1 1 1 1 1 1 1 1 1 1 p@J.. . ",
". . . q@<.1 1 1 1 1 1 1 1 1 1 1 1 1 1 1 1 1 r@s@t@Y.U.Y+U.u+G.u@v@1 1 1 1 1 1 1 1 1 <@U+B 3 Y.).U.L N+4+9+1 1 1 1 1 1 1 1 1 1 1 1 1 1 1 1 w@8 . . . ",
". . . . + x@1 1 1 1 1 1 1 1 1 1 1 1 1 1 1 1 1 y@z@!+%@K 2.j@x+v.f.1 1 1 1 1 1 1 1 1 ^+V+,@A@(+B@g.$@C@].1 1 1 1 1 1 1 1 1 1 1 1 1 1 1 1 D@E@. . . . ",
". . . . . 9 F@B 1 1 1 1 1 1 1 1 1 1 1 1 1 1 1 G@~@R+f@T+~+3+H@L 1 1 1 1 1 1 1 1 1 1 (+f@u@I@m.a@J@4+].1 1 1 1 1 1 1 1 1 1 1 1 1 1 1 B K@L@. . . . . ",
". . . . . . . 5@-.M@1 1 1 1 1 1 1 1 1 1 1 1 1 1 1 9+N@O@c.7+1 1 1 1 1 1 1 1 1 1 1 1 1 7+1 Y..+~@0@1 1 1 1 1 1 1 1 1 1 1 1 1 1 1 P@Q@R@. . . . . . . ",
". . . . . . . . l S@T@U@V@1 1 1 1 1 1 1 1 1 1 f.B W@| X@Y@Z@`@`@F  #.#+#@###$#.#%#F `@&#U@*#X@| 1.B f.1 1 1 1 1 1 1 1 1 1 =#-#% ;#< . . . . . . . . ",
". . . . . . . . . . . < . . . . . . . . . . . . . . . . . . . . . . . . . . . . . . . . . . . . . . . . . . . . . . . . . . . . . . . . . . . . . . "};
