/* XPM */
static char * gcpad2_xpm[] = {
"70 50 715 2",
"  	c None",
". 	c #908E9C",
"+ 	c #7C7993",
"@ 	c #6F6B8E",
"# 	c #6C6690",
"$ 	c #484173",
"% 	c #504980",
"& 	c #524A83",
"* 	c #554D87",
"= 	c #544C87",
"- 	c #50487F",
"; 	c #474071",
"> 	c #6C668F",
", 	c #6F6A8D",
"' 	c #88859D",
") 	c #8F8D9A",
"! 	c #BAB9BE",
"~ 	c #8A8898",
"{ 	c #6F6B8B",
"] 	c #5C5585",
"^ 	c #574F8B",
"/ 	c #5F5697",
"( 	c #5C5392",
"_ 	c #574E8A",
": 	c #4E467C",
"< 	c #4B4478",
"[ 	c #4A4375",
"} 	c #474070",
"| 	c #5C5393",
"1 	c #5F5698",
"2 	c #564D89",
"3 	c #5A5382",
"4 	c #6E6A8A",
"5 	c #9795A5",
"6 	c #A0A0A0",
"7 	c #9A9A9A",
"8 	c #878787",
"9 	c #A4A4A4",
"0 	c #9C9C9C",
"a 	c #92919D",
"b 	c #706B8C",
"c 	c #5B5488",
"d 	c #5B5291",
"e 	c #59508D",
"f 	c #514981",
"g 	c #463F6F",
"h 	c #4B4477",
"i 	c #534B84",
"j 	c #5B5290",
"k 	c #585184",
"l 	c #6D6988",
"m 	c #9D9CA9",
"n 	c #9595BA",
"o 	c #9595B9",
"p 	c #81818D",
"q 	c #A7A7A8",
"r 	c #7A7A7A",
"s 	c #A5A5A5",
"t 	c #9F9F9F",
"u 	c #8B8B8B",
"v 	c #9897A1",
"w 	c #615C80",
"x 	c #59518C",
"y 	c #5A5190",
"z 	c #514980",
"A 	c #484172",
"B 	c #544C85",
"C 	c #5E5596",
"D 	c #534B94",
"E 	c #302B94",
"F 	c #100E99",
"G 	c #1313AC",
"H 	c #4D4DAF",
"I 	c #8E8EB3",
"J 	c #C3C3C5",
"K 	c #9D9D9D",
"L 	c #8C8C8C",
"M 	c #84809B",
"N 	c #615A92",
"O 	c #5E5597",
"P 	c #494274",
"Q 	c #564E89",
"R 	c #645BA0",
"S 	c #4E4792",
"T 	c #211E98",
"U 	c #0303B0",
"V 	c #1212B1",
"W 	c #6262B0",
"X 	c #A2A2AD",
"Y 	c #9E9E9E",
"Z 	c #A2A1A5",
"` 	c #67637E",
" .	c #514A7E",
"..	c #514A82",
"+.	c #433D6B",
"@.	c #423C69",
"#.	c #413B68",
"$.	c #554D88",
"%.	c #49427D",
"&.	c #24217F",
"*.	c #0403A4",
"=.	c #0B0BB6",
"-.	c #3E3E85",
";.	c #727272",
">.	c #83828E",
",.	c #565270",
"'.	c #433D69",
").	c #484273",
"!.	c #4B4476",
"~.	c #3B365E",
"{.	c #39335A",
"].	c #3F3863",
"^.	c #39345B",
"/.	c #3C365F",
"(.	c #443E6C",
"_.	c #4A4476",
":.	c #474172",
"<.	c #3D3765",
"[.	c #252271",
"}.	c #0B0A8F",
"|.	c #3D3D94",
"1.	c #706E7B",
"2.	c #403B64",
"3.	c #4E477B",
"4.	c #4E477C",
"5.	c #4D467B",
"6.	c #3F3A65",
"7.	c #383359",
"8.	c #453E6E",
"9.	c #423B68",
"0.	c #383259",
"a.	c #4C4579",
"b.	c #322E5A",
"c.	c #949399",
"d.	c #45415D",
"e.	c #383358",
"f.	c #3E3862",
"g.	c #3D3861",
"h.	c #4C4578",
"i.	c #4B456D",
"j.	c #5E5B77",
"k.	c #64617B",
"l.	c #504B6E",
"m.	c #4B4577",
"n.	c #494374",
"o.	c #585666",
"p.	c #3D385C",
"q.	c #474171",
"r.	c #4C467A",
"s.	c #413B67",
"t.	c #4E4870",
"u.	c #919097",
"v.	c #B1B1B1",
"w.	c #ACACAC",
"x.	c #C7C7C7",
"y.	c #CACACA",
"z.	c #7B7986",
"A.	c #403D55",
"B.	c #474363",
"C.	c #4D467A",
"D.	c #403A66",
"E.	c #423C6A",
"F.	c #443D6C",
"G.	c #3F3964",
"H.	c #9B9B9F",
"I.	c #CCCCCC",
"J.	c #CBCBCB",
"K.	c #9B9B9B",
"L.	c #ACACAD",
"M.	c #5B596B",
"N.	c #524F65",
"O.	c #453F6E",
"P.	c #433C6A",
"Q.	c #5A518F",
"R.	c #59508E",
"S.	c #564D88",
"T.	c #383258",
"U.	c #453E6D",
"V.	c #3A355D",
"W.	c #443E6B",
"X.	c #BCBCBD",
"Y.	c #C9C9C9",
"Z.	c #99989A",
"`.	c #8D8B96",
" +	c #828090",
".+	c #605C7D",
"++	c #4B4578",
"@+	c #4A4376",
"#+	c #8E8D96",
"$+	c #A2A1A6",
"%+	c #584F8B",
"&+	c #4B4474",
"*+	c #46425F",
"=+	c #47464F",
"-+	c #474651",
";+	c #474261",
">+	c #4D4678",
",+	c #584F8C",
"'+	c #46406F",
")+	c #3D3761",
"!+	c #464070",
"~+	c #666375",
"{+	c #848291",
"]+	c #58527A",
"^+	c #564E88",
"/+	c #3E395F",
"(+	c #4A4661",
"_+	c #50487D",
":+	c #46454E",
"<+	c #505050",
"[+	c #5F5F5F",
"}+	c #747474",
"|+	c #737373",
"1+	c #5B5B5B",
"2+	c #4F4F50",
"3+	c #44434E",
"4+	c #443E6D",
"5+	c #737180",
"6+	c #A1A1A4",
"7+	c #6C697C",
"8+	c #787683",
"9+	c #454352",
"0+	c #575757",
"a+	c #B9B9B9",
"b+	c #BABABA",
"c+	c #969696",
"d+	c #565656",
"e+	c #434054",
"f+	c #5A518E",
"g+	c #403A65",
"h+	c #403B67",
"i+	c #413A67",
"j+	c #3A345B",
"k+	c #413B66",
"l+	c #59518D",
"m+	c #3B5A82",
"n+	c #2289A0",
"o+	c #395C83",
"p+	c #534B83",
"q+	c #B2B2B2",
"r+	c #5F5C76",
"s+	c #474262",
"t+	c #86858F",
"u+	c #4D457A",
"v+	c #44405F",
"w+	c #545454",
"x+	c #B8B8B8",
"y+	c #C5C5C5",
"z+	c #B7B7B7",
"A+	c #464166",
"B+	c #423B69",
"C+	c #373157",
"D+	c #342F53",
"E+	c #3B355D",
"F+	c #353054",
"G+	c #332E51",
"H+	c #3A345C",
"I+	c #524A82",
"J+	c #554F89",
"K+	c #1696A5",
"L+	c #00FAFA",
"M+	c #00FFFF",
"N+	c #00FBFB",
"O+	c #149CA9",
"P+	c #544E88",
"Q+	c #7D7A8C",
"R+	c #C2C2C2",
"S+	c #909095",
"T+	c #4C4679",
"U+	c #646275",
"V+	c #4E467B",
"W+	c #505051",
"X+	c #828282",
"Y+	c #C0C0C0",
"Z+	c #BEBEBE",
"`+	c #BBBBBB",
" @	c #C3C3C3",
".@	c #767676",
"+@	c #4C4B4F",
"@@	c #247F97",
"#@	c #00FEFE",
"$@	c #20859B",
"%@	c #58527B",
"&@	c #C1C1C1",
"*@	c #433E6A",
"=@	c #4D477B",
"-@	c #99989D",
";@	c #64607C",
">@	c #484071",
",@	c #A7A7A7",
"'@	c #C4C4C4",
")@	c #BCBCBC",
"!@	c #4F477D",
"~@	c #423C67",
"{@	c #6C6A77",
"]@	c #72707B",
"^@	c #443E65",
"/@	c #3D3760",
"(@	c #574F8A",
"_@	c #04CCCE",
":@	c #00E1E1",
"<@	c #00E0E0",
"[@	c #04D5D7",
"}@	c #544D86",
"|@	c #554D84",
"1@	c #A3A3A3",
"2@	c #AFAFAF",
"3@	c #453F69",
"4@	c #898894",
"5@	c #66627F",
"6@	c #484171",
"7@	c #535353",
"8@	c #C6C6C6",
"9@	c #BFBFBF",
"0@	c #4A4A4B",
"a@	c #5E5B6F",
"b@	c #B3B3B3",
"c@	c #6B6977",
"d@	c #3E3963",
"e@	c #4F4C82",
"f@	c #00E7E8",
"g@	c #00C6C6",
"h@	c #00C5C5",
"i@	c #01EBEB",
"j@	c #4D4C80",
"k@	c #584F8A",
"l@	c #A4A3A6",
"m@	c #72707E",
"n@	c #635F7A",
"o@	c #A8A8A8",
"p@	c #555169",
"q@	c #5F5D6F",
"r@	c #564F8A",
"s@	c #03D0D2",
"t@	c #00EEEE",
"u@	c #03D9DB",
"v@	c #534C84",
"w@	c #5A528F",
"x@	c #817F8D",
"y@	c #777582",
"z@	c #514F5D",
"A@	c #5A586D",
"B@	c #525253",
"C@	c #868686",
"D@	c #BDBDBD",
"E@	c #797979",
"F@	c #4D4C4F",
"G@	c #3C3760",
"H@	c #443D6B",
"I@	c #514E68",
"J@	c #56536A",
"K@	c #433C69",
"L@	c #4C3F6D",
"M@	c #86192C",
"N@	c #A30D16",
"O@	c #782744",
"P@	c #594E8A",
"Q@	c #20869C",
"R@	c #1D8CA0",
"S@	c #3E3861",
"T@	c #4A456B",
"U@	c #3B394A",
"V@	c #44405C",
"W@	c #B0B0B0",
"X@	c #A9A9A9",
"Y@	c #515151",
"Z@	c #454063",
"`@	c #3C3660",
" #	c #494273",
".#	c #4D4579",
"+#	c #A10F1A",
"@#	c #EE0000",
"##	c #DF0000",
"$#	c #FC0000",
"%#	c #7C243F",
"&#	c #534F87",
"*#	c #12A4B0",
"=#	c #00FDFD",
"-#	c #0FAAB4",
";#	c #514F86",
">#	c #3F3D50",
",#	c #1E1B30",
"'#	c #464451",
")#	c #585858",
"!#	c #444154",
"~#	c #3F3965",
"{#	c #514A81",
"]#	c #50497F",
"^#	c #483E6D",
"/#	c #E20101",
"(#	c #CF0000",
"_#	c #BA0000",
":#	c #B20C16",
"<#	c #57508B",
"[#	c #346589",
"}#	c #1B96A8",
"|#	c #1B96A9",
"1#	c #32688A",
"2#	c #423C68",
"3#	c #232038",
"4#	c #282540",
"5#	c #46454C",
"6#	c #4F4F4F",
"7#	c #666666",
"8#	c #7D7D7D",
"9#	c #7C7C7C",
"0#	c #616161",
"a#	c #44424C",
"b#	c #454068",
"c#	c #514C6B",
"d#	c #6B687E",
"e#	c #8B8998",
"f#	c #9795A0",
"g#	c #8F8E94",
"h#	c #979698",
"i#	c #89898B",
"j#	c #8F8E93",
"k#	c #6C6980",
"l#	c #534F70",
"m#	c #48436D",
"n#	c #4A4374",
"o#	c #CA0408",
"p#	c #D90000",
"q#	c #CD0000",
"r#	c #FA0000",
"s#	c #9A1423",
"t#	c #332F52",
"u#	c #2B2745",
"v#	c #494375",
"w#	c #433D6A",
"x#	c #494370",
"y#	c #46425B",
"z#	c #49484E",
"A#	c #48474F",
"B#	c #46425E",
"C#	c #4B4473",
"D#	c #33304C",
"E#	c #3F3963",
"F#	c #612B4A",
"G#	c #D50305",
"H#	c #F20000",
"I#	c #BF070D",
"J#	c #483156",
"K#	c #453F6D",
"L#	c #38345A",
"M#	c #2D2948",
"N#	c #3B365F",
"O#	c #353155",
"P#	c #433C6B",
"Q#	c #A6A6AA",
"R#	c #6F6D7B",
"S#	c #493F6F",
"T#	c #4E365E",
"U#	c #322E50",
"V#	c #2E2A4A",
"W#	c #373359",
"X#	c #3D3862",
"Y#	c #514982",
"Z#	c #423E5C",
"`#	c #403B66",
" $	c #343053",
".$	c #2F2B4B",
"+$	c #504E60",
"@$	c #454161",
"#$	c #373257",
"$$	c #3A355C",
"%$	c #363156",
"&$	c #716F7E",
"*$	c #403C57",
"=$	c #47416A",
"-$	c #39355C",
";$	c #39345C",
">$	c #342F52",
",$	c #363257",
"'$	c #312C4E",
")$	c #302C4C",
"!$	c #312D4E",
"~$	c #8A8992",
"{$	c #4F4D61",
"]$	c #484263",
"^$	c #615E3B",
"/$	c #878515",
"($	c #AFAF02",
"_$	c #9B9B08",
":$	c #727028",
"<$	c #4F4A51",
"[$	c #4A4475",
"}$	c #322E51",
"|$	c #353055",
"1$	c #47445A",
"2$	c #AAAAAA",
"3$	c #A6A6A7",
"4$	c #7A797D",
"5$	c #363157",
"6$	c #3D385F",
"7$	c #8C8C91",
"8$	c #4C4759",
"9$	c #AEAE02",
"0$	c #C2C200",
"a$	c #BFBF00",
"b$	c #726F24",
"c$	c #322D4F",
"d$	c #4E4C60",
"e$	c #B4B4B4",
"f$	c #959595",
"g$	c #8E8E90",
"h$	c #73727F",
"i$	c #4D4965",
"j$	c #4A4372",
"k$	c #93920D",
"l$	c #C0C000",
"m$	c #A5A500",
"n$	c #AAAA00",
"o$	c #A4A400",
"p$	c #B7B700",
"q$	c #BCBC00",
"r$	c #565245",
"s$	c #353156",
"t$	c #2C2846",
"u$	c #868688",
"v$	c #413D5C",
"w$	c #6D6A28",
"x$	c #A8A800",
"y$	c #F0F000",
"z$	c #FFFF00",
"A$	c #FEFE00",
"B$	c #C8C800",
"C$	c #ADAD00",
"D$	c #A6A605",
"E$	c #4A4465",
"F$	c #27243F",
"G$	c #808085",
"H$	c #7C7B80",
"I$	c #8F8F91",
"J$	c #B1B1B2",
"K$	c #76757C",
"L$	c #9A999F",
"M$	c #A2A205",
"N$	c #A6A600",
"O$	c #F4F400",
"P$	c #EAEA00",
"Q$	c #F1F100",
"R$	c #5D5A40",
"S$	c #302C4D",
"T$	c #242139",
"U$	c #413E55",
"V$	c #6E6C77",
"W$	c #707070",
"X$	c #B6B6B6",
"Y$	c #989898",
"Z$	c #302C4B",
"`$	c #92919C",
" %	c #A4A404",
".%	c #B1B100",
"+%	c #FDFD00",
"@%	c #CCCC00",
"#%	c #FCFC00",
"$%	c #DCDC00",
"%%	c #B2B200",
"&%	c #5E5B3F",
"*%	c #676670",
"=%	c #4F4C62",
"-%	c #949494",
";%	c #7B7B7B",
">%	c #2F2C4B",
",%	c #9F9EA8",
"'%	c #484271",
")%	c #A6A504",
"!%	c #AEAE00",
"~%	c #C9C900",
"{%	c #EEEE00",
"]%	c #D4D400",
"^%	c #5F5C3F",
"/%	c #3F3B59",
"(%	c #565365",
"_%	c #2A2643",
":%	c #5D5A70",
"<%	c #44415A",
"[%	c #5D5B6B",
"}%	c #717078",
"|%	c #C8C8C8",
"1%	c #A3A3A4",
"2%	c #575566",
"3%	c #96969A",
"4%	c #494272",
"5%	c #A0A005",
"6%	c #E6E600",
"7%	c #ACAC00",
"8%	c #5B5741",
"9%	c #83828B",
"0%	c #3E3962",
"a%	c #5B577A",
"b%	c #7C7994",
"c%	c #817E99",
"d%	c #5F5B7D",
"e%	c #696875",
"f%	c #38354F",
"g%	c #373258",
"h%	c #8A8A8A",
"i%	c #858587",
"j%	c #4B4763",
"k%	c #403A64",
"l%	c #5A573B",
"m%	c #D0D000",
"n%	c #AFAF00",
"o%	c #B6B600",
"p%	c #92910E",
"q%	c #4A4470",
"r%	c #797591",
"s%	c #FDFDFD",
"t%	c #FFFFFF",
"u%	c #FCFCFD",
"v%	c #9F9DB1",
"w%	c #84838C",
"x%	c #4C4961",
"y%	c #3A355E",
"z%	c #8D8C95",
"A%	c #4A475E",
"B%	c #78771D",
"C%	c #B8B800",
"D%	c #9D9D00",
"E%	c #A9A900",
"F%	c #C1C100",
"G%	c #AEAE03",
"H%	c #4C475A",
"I%	c #5C5970",
"J%	c #656282",
"K%	c #807C97",
"L%	c #4A466C",
"M%	c #666282",
"N%	c #F5F5F7",
"O%	c #413C64",
"P%	c #9D9DA0",
"Q%	c #464356",
"R%	c #807E8A",
"S%	c #38335A",
"T%	c #423F58",
"U%	c #838387",
"V%	c #848388",
"W%	c #62616A",
"X%	c #413C5D",
"Y%	c #49436C",
"Z%	c #888710",
"`%	c #A5A505",
" &	c #5A563F",
".&	c #ADADB0",
"+&	c #423D65",
"@&	c #EAE9EE",
"#&	c #EEEDF1",
"$&	c #403B63",
"%&	c #343054",
"&&	c #666574",
"*&	c #423E5A",
"=&	c #453F6B",
"-&	c #ACABAF",
";&	c #797883",
">&	c #4A445C",
",&	c #676433",
"'&	c #8D8C0F",
")&	c #797820",
"!&	c #555149",
"~&	c #48426F",
"{&	c #676573",
"]&	c #3F3A63",
"^&	c #AFADBE",
"/&	c #FDFDFE",
"(&	c #8C89A1",
"_&	c #332F4C",
":&	c #787783",
"<&	c #3D3957",
"[&	c #413C66",
"}&	c #939299",
"|&	c #61606E",
"1&	c #555264",
"2&	c #433E66",
"3&	c #BDBBC9",
"4&	c #9694AA",
"5&	c #494659",
"6&	c #8E8D94",
"7&	c #4D4A65",
"8&	c #94939A",
"9&	c #383457",
"0&	c #3C375D",
"a&	c #818089",
"b&	c #CECDD7",
"c&	c #444067",
"d&	c #443F67",
"e&	c #87868E",
"f&	c #3C375F",
"g&	c #A6A5A8",
"h&	c #4E4B65",
"i&	c #4C4769",
"j&	c #4D496B",
"k&	c #44405D",
"l&	c #6A6879",
"m&	c #5C596F",
"n&	c #474362",
"o&	c #4E4A6D",
"p&	c #494565",
"q&	c #58556B",
"r&	c #86858D",
"s&	c #7D7A95",
"t&	c #433E65",
"u&	c #544F73",
"v&	c #83809A",
"w&	c #454257",
"x&	c #434155",
"y&	c #9A999E",
"z&	c #98989B",
"A&	c #403E52",
"B&	c #484656",
"C&	c #3E3C51",
"D&	c #464456",
"E&	c #2D2A48",
"F&	c #5A5965",
"                                                      . + @ # $ % & * = & - ; > , ' ) !                                                     ",
"                                            ~ { ] ^ / ( _ & : < [ $ } } $ [ < : & _ | 1 2 3 4 5                                             ",
"                      6 7 8 9 0     a b c d e f [ } g g g g g g g g g g g g g g g g g g ; h i j d k l m n o p q r s t                       ",
"                  u           v w x y z A g g g g g g g g g g g g g g g g g g g g g g g g g g g g [ B C D E F G H I J 9 K                   ",
"                L         M N O z } g g g g g g g g g g g g g g g g g g g g g g g g g g g g g g g g g g P Q R S T U V W X Y                 ",
"                    Z `  ...+.@.g g g g g g g g g g g g g g g g g g g g g g g g g g g g g g g g g g g g g g #.[ $.%.&.*.=.-.                ",
"              ;.>.,.'.).h !.A #.~.{.@.g g g g g g g g g g g g g g g g g g g g g g g g g g g g g g g g ].^./.(.P h _.:.<.[.}.|.              ",
"            1.2.3.4.4.4.4.4.4.4.4.5.6.7.8.g g g g g g g g g g g g g g g g g g g g g g g g g g g g 9.0.(.4.4.4.4.4.4.4.4.4.a.b.c.            ",
"          d.5.4.4.4.4.4.4.4.4.4.4.4.4.a.e.@.g g g g g g g g g g g g g g g g g g g g g g g g g g f.g.4.4.4.h.i.j.k.l.m.4.4.4.4.n.o.          ",
"        p.4.4.4.4.4.4.a.q.A r.4.4.4.4.4.4.~.s.g g g g g g g g g g g g g g g g g g g g g g g g /.@.4.4.4.t.u.v.w.x.y.z.5.4.4.4.4.a.A.        ",
"      B.4.4.4.4.C.D.E.A 4.: ; @.s.4.4.4.4.4.^.F.g g g g g g g g g g g g g g g g g g g g g g G.s.4.4.4.!.H.I.J.K.I.I.L.n.4.4.4.4.4.C.M.      ",
"    N.3.4.4.4.O.P.^ Q.Q.R.R.Q.Q.S.s.:.4.4.4.C.T.g g g g g g g g g g g g g g g g g g g g g U.V.4.4.4.4.W.X.I.Y.Z.`. +.+g 6.++4.4.4.4.@+#+    ",
"  $+A 4.4.4.(.< Q.%+&+*+=+-+;+>+,+Q.A '+4.4.4.O.)+g g g g g g g g g g g g g g g g g g g g 7.C.4.4.4.4.!+~+{+]+^+j j j j Q.(.!+3.h 4.4./+    ",
"  (+4.4.4.).$ Q._+:+<+[+}+|+1+2+3+i Q.F.h 4.4.4.^.g g g g g g g g g g g g g g g g g g g 4+g.4.4.4.4.P '+j j j j j j j j j j g 5+6+7+h.5.8+  ",
"  +.4.4.4.D.Q.,+9+0+Y a+b+b+a+c+d+e+f+R.g+4.4.4.h+P.g g g g U.G.s.D.i+D.9.9.g+F.g g g g j+h.4.4.4.4.k+j j j l+m+n+n+o+e j j p+q+I.y.r+4.s+  ",
"t+4.4.4.).u+Q.v+w+w.x+y+b+b+y+z+9 <+A+Q.} C.4.4.a.^.g g g g B+C+T.D+E+{.F+D+G+s.g g g g H+4.4.4.4.4+I+j j J+K+L+M+M+N+O+P+j j Q+R+x+S+T+(.  ",
"U+4.4.4.D.e V+W+X+x+Y+Z+y.J.`+ @a+.@+@i %+D.4.4.4.^.g g g g g g g g g g g g g g g g g g ~.4.4.4.4.s.j j j @@#@M+M+M+M+#@$@j j %@x.u &@*@=@-@",
";@4.4.4.9.Q.>@w+,@&@a+R+b+a+'@b+)@0 <+!@Q.D.4.4.4.E+g g g g g g g ~@{@]@^@g g g g g g g /@4.4.4.4.(.j j (@_@M+M+:@<@M+M+[@}@j |@1@2@Z+3@4.4@",
"5@4.4.4.@.Q.6@7@q+8@`+b+I.I.b+b+9@w.0@!@Q.#.4.4.4.~.g g g g g g g a@b@b@c@g g g g g g U.d@4.4.4.4.8.j j e@f@M+M+g@h@M+M+i@j@j k@l@I.Z+W.4.m@",
"n@4.4.4.#.Q.6@w+o@R+a+Y+`+b+ @b+)@Y <+!@Q.D.4.4.4./.g g g g g g g p@v.q+q@g g g g g g @.s.4.4.4.4.(.j j r@s@M+M+t@t@M+M+u@v@j w@x@8@y@=@4.z@",
"A@4.4.4.D.R.a.B@C@x+9@Y+y.y.D@R+a+E@F@I+,+6.4.4.4.G@g g g g g g g H@I@J@K@g g g g g g D.(.4.4.L@M@N@O@P@j Q@#@M+M+M+M+M+R@j j j S@T@h.4.=@z@",
"U@4.4.4.q.: Q.V@d+W@b+ @b+b+'@x+X@Y@Z@Q.A a.4.4.4.f.8.g g g g g g g g g g g g g g g g `@ #4..#+#@###$#%#j &#*#=#M+M+#@-#;#j j * E.4.4.4.O.>#",
",#O.4.4.4.s.Q.(@'#1+,@b+`+`+`+Y )#!#R.Q.~#4.4.4.4.O.G.g g $ h : - f {#{#f ]#V+h ; g g {.3.4.^#/#(#_#$#:#Q.j <#[#}#|#1#r@j j j 2#4.4.4.4.E+3#",
"4#7.4.4.4.q.@+Q._+5#6#7#8#9#0#2+a#i Q.g [ 4.4.4.4.C./.q.b#c#d#e#f#g#h#i#j#f#e#k#l#m#h ~.4.4.n#o#p#q#r#s#j j j j j j j j j j [ } 4.4.4.5.t#4#",
"u#t#v#4.4.4.w#V+Q.%+x#y#z#A#B#C#e Q.@+U.4.4.4.4.4.4.D#                                E#4.4.4.F#G#H#I#J#!+Q.j j j j j j w@; K#4.4.4.4.6.L#u#",
"M#N#O#4.4.4.4.(.8.e Q.Q._ %+Q.Q.%+P#'+4.4.4.4.4.4.4.q.Q#                            R#3.4.4.4.4.S#T#n#4.[ g+ #(@j j %+P D.n.4.4.4.4.h.U#G@M#",
"V#G@W#X#4.4.4.4.++g+H@P & Y#$ +.D.r.4.4.4.4.4.4.4.4.4.Z#                            `#4.4.4.4.4.4.4.4.4.4.4.++s.G.G.s.++4.4.4.4.4.4. $N#G@V#",
".$G@G@O#g+4.4.4.4.4.4.h.(.O.a.4.4.4.4.4.4.4.4.4.4.4.4.3.+$                        @$4.4.4.4.4.4.4.4.4.4.4.4.4.4.4.4.4.4.4.4.4.4.5.#$$$G@G@.$",
".$G@G@G@%$V.5.4.4.4.4.4.4.4.4.4.4.4.4.4.4.++4+w#q.4.4.4.h &$                    *$4.4.4.4.5.=$n#4.4.4.4.4.4.4.4.4.4.4.4.4.4.4.h  $-$G@G@G@.$",
".$G@G@G@G@;$>$K#4.4.4.4.4.4.4.4.4.4.4.[ ,$'$)$!$)$G+D.4.4.).~$                {$5.4.4.]$^$/$($_$:$<$[$4.4.4.4.4.4.4.4.4.4.4.d@}$N#G@G@G@G@.$",
".$G@G@G@G@G@G@|$%$[ 4.4.4.4.4.4.4.4.q.U#~.1$2$3$4$N#5$$$4.4.6$              7$P 4.4.8$9$0$0$0$0$0$a$b$C.4.4.4.4.4.4.4.4.(.t#L#G@G@G@G@G@G@.$",
"V#G@G@G@G@G@G@G@G@G+G@=@4.4.4.4.4.C.c$N#N#d$e$f$g$N#N#5$g+4.4.h$            i$4.4.j$k$0$l$m$n$o$p$0$q$r$4.4.4.4.4.4.h ,$s$G@G@G@G@G@G@G@G@V#",
"t$G@G@G@G@G@G@G@G@G@^. $h 4.4.4.4.)+;$N#N#d$,@K.u$N#N#N#U#4.4.v$            H@4.=@w$0$l$x$y$z$A$B$C$0$D$E$4.4.4.4.O.U#N#G@G@G@G@G@G@G@G@G@t$",
"F$G@G@G@G@G@G@G@G@G@G@N#U#++4.4.4.|$+$G$H$I$y+)@J$H$G$K$)$O.4.`#          L$C.4. #M$0$N$O$z$P$Q$z$p$0$0$R$4.4.4.w#S$G@G@G@G@G@G@G@G@G@G@G@F$",
"T$G@G@G@G@G@G@G@G@G@G@G@!$U$4.4.4.t#V$2@C@y.8 W$X$1@Y$e$Z$g+4.A           `$4.4.). %0$.%z$+%@%#%z$$%%%0$&%4.4.h.*%!$G@G@G@G@G@G@G@G@G@G@G@T$",
"=%G@G@G@G@G@G@G@G@G@G@G@V#  s.4.4.t#V$D@-%y.-%;%D@o@2$a+>%h+4.O.          ,%3.4.'%)%0$!%z$A$~%{%z$]%p$0$^%4.4./%  V#G@G@G@G@G@G@G@G@G@G@G@=%",
"(%G@G@G@G@G@G@G@G@G@G@G@_%  :%4.4.,$<%[%[%}%y.|%1%[%[%2%S$A 4.g.          3%a.4.4%5%0$n$6%z$z$z$z$7%0$0$8%4.5.9%  _%G@G@0%a%b%c%d%g.G@G@G@(%",
"e%G@G@G@G@G@G@G@G@G@G@G@f%  L$a.4.s.g%N#N#d$Y h%i%N#N#N#D+4.4.j%            k%4.4.l%l$0$N$m%#%P$n%o%0$p%q%4.f.    f%G@G@r%s%t%t%u%v%G@G@G@e%",
"w%G@G@G@G@G@G@G@G@G@G@G@x%    ^.4.4. $y%N#d$D@6 I$N#N#D+O.4.C.z%            A%4.4.C.B%0$0$C%D%E%F%0$G%H%4.4.I%    x%G@G@J%K%L%M%N%N%O%G@G@w%",
"P%~.G@G@G@G@G@G@G@G@G@G@Q%    R%C.4.++t#S%T%U%V%W%~.}$s.4.4.X%                w#4.4.Y%Z%C%0$0$0$l$`% &4.4.(..&    Q%G@G@G@G@G@+&@&#&$&G@~.P%",
"  %&G@G@G@G@G@G@G@G@G@G@&&      *&4.4.5.f.D+}$}$}$7.).4.4.=&-&                ;&_.4.4.h.>&,&'&)&!&~&4.4.a.{&      &&G@G@G@G@]&^&/&(&G@G@%&  ",
"  _&G@G@G@G@G@G@G@G@G@G@:&        <&4.4.4.4.T+++3.4.4.4.[&}&                    |&A 4.4.4.4.T+4.4.4.4.h 1&        :&G@G@G@2&3&s%4&g.G@G@_&  ",
"  5&G@G@G@G@G@G@G@G@G@G@6&          2%'.3.4.4.4.4.4.P 7&                          8&9&T+4.4.4.4.4.C.0&a&          6&G@G@T@b&s%(&c&d&G@G@5&  ",
"  e&f&G@G@G@G@G@G@G@G@^.g&              z.h&i&j&k&l&                                  8&m&n&o&p&q&r&              g&^.G@s&t%t%t%t%t%t&f&e&  ",
"    t#G@G@G@G@G@G@G@G@)$                                                                                            )$G@u&v&v&v&v&v&0%t#    ",
"    w&G@G@G@G@G@G@G@G@x&                                                                                            x&G@G@G@G@G@G@G@G@w&    ",
"    y&-$G@G@G@G@G@G@L#z&                                                                                            z&L#G@G@G@G@G@G@-$y&    ",
"      A&G@G@G@G@G@G@B&                                                                                                B&G@G@G@G@G@G@A&      ",
"        _&G@G@G@N#C&                                                                                                    C&N#G@G@G@_&        ",
"          D&E&_%F&                                                                                                        F&_%E&D&          "};
