/* XPM */
static char * gcpad1_xpm[] = {
"70 50 712 2",
"  	c None",
". 	c #DDDDDE",
"+ 	c #BABABE",
"@ 	c #908E9C",
"# 	c #7C7993",
"$ 	c #6F6B8E",
"% 	c #6C6690",
"& 	c #484173",
"* 	c #504980",
"= 	c #524A83",
"- 	c #554D87",
"; 	c #544C87",
"> 	c #50487F",
", 	c #474071",
"' 	c #6C668F",
") 	c #6F6A8D",
"! 	c #88859D",
"~ 	c #8F8D9A",
"{ 	c #BAB9BE",
"] 	c #DCDCDD",
"^ 	c #8A8898",
"/ 	c #6F6B8B",
"( 	c #5C5585",
"_ 	c #574F8B",
": 	c #5F5697",
"< 	c #5C5392",
"[ 	c #574E8A",
"} 	c #4E467C",
"| 	c #4B4478",
"1 	c #4A4375",
"2 	c #474070",
"3 	c #5C5393",
"4 	c #5F5698",
"5 	c #564D89",
"6 	c #5A5382",
"7 	c #6E6A8A",
"8 	c #9795A5",
"9 	c #A0A0A0",
"0 	c #9A9A9A",
"a 	c #878787",
"b 	c #A4A4A4",
"c 	c #9C9C9C",
"d 	c #92919D",
"e 	c #706B8C",
"f 	c #5B5488",
"g 	c #5B5291",
"h 	c #59508D",
"i 	c #514981",
"j 	c #463F6F",
"k 	c #4B4477",
"l 	c #534B84",
"m 	c #5B5290",
"n 	c #585184",
"o 	c #6D6988",
"p 	c #9D9CA9",
"q 	c #9595BA",
"r 	c #9595B9",
"s 	c #81818D",
"t 	c #A7A7A8",
"u 	c #7A7A7A",
"v 	c #A5A5A5",
"w 	c #9F9F9F",
"x 	c #8B8B8B",
"y 	c #9897A1",
"z 	c #615C80",
"A 	c #59518C",
"B 	c #5A5190",
"C 	c #514980",
"D 	c #484172",
"E 	c #544C85",
"F 	c #5E5596",
"G 	c #534B94",
"H 	c #302B94",
"I 	c #100E99",
"J 	c #1313AC",
"K 	c #4D4DAF",
"L 	c #8E8EB3",
"M 	c #C3C3C5",
"N 	c #9D9D9D",
"O 	c #8C8C8C",
"P 	c #84809B",
"Q 	c #615A92",
"R 	c #5E5597",
"S 	c #494274",
"T 	c #564E89",
"U 	c #645BA0",
"V 	c #4E4792",
"W 	c #211E98",
"X 	c #0303B0",
"Y 	c #1212B1",
"Z 	c #6262B0",
"` 	c #A2A2AD",
" .	c #9E9E9E",
"..	c #A2A1A5",
"+.	c #67637E",
"@.	c #514A7E",
"#.	c #514A82",
"$.	c #433D6B",
"%.	c #423C69",
"&.	c #413B68",
"*.	c #554D88",
"=.	c #49427D",
"-.	c #24217F",
";.	c #0403A4",
">.	c #0B0BB6",
",.	c #3E3E85",
"'.	c #727272",
").	c #83828E",
"!.	c #565270",
"~.	c #433D69",
"{.	c #484273",
"].	c #4B4476",
"^.	c #3B365E",
"/.	c #39335A",
"(.	c #3F3863",
"_.	c #39345B",
":.	c #3C365F",
"<.	c #443E6C",
"[.	c #4A4476",
"}.	c #474172",
"|.	c #3D3765",
"1.	c #252271",
"2.	c #0B0A8F",
"3.	c #3D3D94",
"4.	c #706E7B",
"5.	c #403B64",
"6.	c #4E477B",
"7.	c #4E477C",
"8.	c #4D467B",
"9.	c #3F3A65",
"0.	c #383359",
"a.	c #453E6E",
"b.	c #423B68",
"c.	c #383259",
"d.	c #4C4579",
"e.	c #322E5A",
"f.	c #949399",
"g.	c #45415D",
"h.	c #383358",
"i.	c #3E3862",
"j.	c #3D3861",
"k.	c #4C4578",
"l.	c #4B456D",
"m.	c #5E5B77",
"n.	c #64617B",
"o.	c #504B6E",
"p.	c #4B4577",
"q.	c #494374",
"r.	c #585666",
"s.	c #3D385C",
"t.	c #474171",
"u.	c #4C467A",
"v.	c #413B67",
"w.	c #4E4870",
"x.	c #919097",
"y.	c #B1B1B1",
"z.	c #ACACAC",
"A.	c #C7C7C7",
"B.	c #CACACA",
"C.	c #7B7986",
"D.	c #403D55",
"E.	c #474363",
"F.	c #4D467A",
"G.	c #403A66",
"H.	c #423C6A",
"I.	c #443D6C",
"J.	c #3F3964",
"K.	c #9B9B9F",
"L.	c #CCCCCC",
"M.	c #CBCBCB",
"N.	c #9B9B9B",
"O.	c #ACACAD",
"P.	c #5B596B",
"Q.	c #524F65",
"R.	c #453F6E",
"S.	c #433C6A",
"T.	c #5A518F",
"U.	c #59508E",
"V.	c #564D88",
"W.	c #383258",
"X.	c #453E6D",
"Y.	c #3A355D",
"Z.	c #443E6B",
"`.	c #BCBCBD",
" +	c #C9C9C9",
".+	c #99989A",
"++	c #8D8B96",
"@+	c #828090",
"#+	c #605C7D",
"$+	c #4B4578",
"%+	c #4A4376",
"&+	c #8E8D96",
"*+	c #A2A1A6",
"=+	c #584F8B",
"-+	c #4B4474",
";+	c #46425F",
">+	c #47464F",
",+	c #474651",
"'+	c #474261",
")+	c #4D4678",
"!+	c #584F8C",
"~+	c #46406F",
"{+	c #3D3761",
"]+	c #464070",
"^+	c #666375",
"/+	c #848291",
"(+	c #58527A",
"_+	c #564E88",
":+	c #3E395F",
"<+	c #4A4661",
"[+	c #50487D",
"}+	c #46454E",
"|+	c #505050",
"1+	c #5F5F5F",
"2+	c #747474",
"3+	c #737373",
"4+	c #5B5B5B",
"5+	c #4F4F50",
"6+	c #44434E",
"7+	c #443E6D",
"8+	c #737180",
"9+	c #A1A1A4",
"0+	c #6C697C",
"a+	c #787683",
"b+	c #454352",
"c+	c #575757",
"d+	c #B9B9B9",
"e+	c #BABABA",
"f+	c #969696",
"g+	c #565656",
"h+	c #434054",
"i+	c #5A518E",
"j+	c #403A65",
"k+	c #403B67",
"l+	c #413A67",
"m+	c #3A345B",
"n+	c #413B66",
"o+	c #59518D",
"p+	c #3B5A82",
"q+	c #2289A0",
"r+	c #395C83",
"s+	c #534B83",
"t+	c #B2B2B2",
"u+	c #5F5C76",
"v+	c #474262",
"w+	c #86858F",
"x+	c #4D457A",
"y+	c #44405F",
"z+	c #545454",
"A+	c #B8B8B8",
"B+	c #C5C5C5",
"C+	c #B7B7B7",
"D+	c #464166",
"E+	c #423B69",
"F+	c #373157",
"G+	c #342F53",
"H+	c #3B355D",
"I+	c #353054",
"J+	c #332E51",
"K+	c #3A345C",
"L+	c #524A82",
"M+	c #554F89",
"N+	c #1696A5",
"O+	c #00FAFA",
"P+	c #00FFFF",
"Q+	c #00FBFB",
"R+	c #149CA9",
"S+	c #544E88",
"T+	c #7D7A8C",
"U+	c #C2C2C2",
"V+	c #909095",
"W+	c #4C4679",
"X+	c #646275",
"Y+	c #4E467B",
"Z+	c #505051",
"`+	c #828282",
" @	c #C0C0C0",
".@	c #BEBEBE",
"+@	c #BBBBBB",
"@@	c #C3C3C3",
"#@	c #767676",
"$@	c #4C4B4F",
"%@	c #247F97",
"&@	c #00FEFE",
"*@	c #20859B",
"=@	c #58527B",
"-@	c #C1C1C1",
";@	c #433E6A",
">@	c #4D477B",
",@	c #99989D",
"'@	c #64607C",
")@	c #484071",
"!@	c #A7A7A7",
"~@	c #C4C4C4",
"{@	c #BCBCBC",
"]@	c #4F477D",
"^@	c #423C67",
"/@	c #6C6A77",
"(@	c #72707B",
"_@	c #443E65",
":@	c #3D3760",
"<@	c #574F8A",
"[@	c #04CCCE",
"}@	c #00E1E1",
"|@	c #00E0E0",
"1@	c #04D5D7",
"2@	c #544D86",
"3@	c #554D84",
"4@	c #A3A3A3",
"5@	c #AFAFAF",
"6@	c #453F69",
"7@	c #898894",
"8@	c #66627F",
"9@	c #484171",
"0@	c #535353",
"a@	c #C6C6C6",
"b@	c #BFBFBF",
"c@	c #4A4A4B",
"d@	c #5E5B6F",
"e@	c #B3B3B3",
"f@	c #6B6977",
"g@	c #3E3963",
"h@	c #4F4C82",
"i@	c #00E7E8",
"j@	c #00C6C6",
"k@	c #00C5C5",
"l@	c #01EBEB",
"m@	c #4D4C80",
"n@	c #584F8A",
"o@	c #A4A3A6",
"p@	c #72707E",
"q@	c #635F7A",
"r@	c #A8A8A8",
"s@	c #555169",
"t@	c #5F5D6F",
"u@	c #564F8A",
"v@	c #03D0D2",
"w@	c #00EEEE",
"x@	c #03D9DB",
"y@	c #534C84",
"z@	c #5A528F",
"A@	c #817F8D",
"B@	c #777582",
"C@	c #514F5D",
"D@	c #5A586D",
"E@	c #525253",
"F@	c #868686",
"G@	c #BDBDBD",
"H@	c #797979",
"I@	c #4D4C4F",
"J@	c #3C3760",
"K@	c #443D6B",
"L@	c #514E68",
"M@	c #56536A",
"N@	c #433C69",
"O@	c #4C3F6D",
"P@	c #86192C",
"Q@	c #A30D16",
"R@	c #782744",
"S@	c #594E8A",
"T@	c #20869C",
"U@	c #1D8CA0",
"V@	c #3E3861",
"W@	c #4A456B",
"X@	c #3B394A",
"Y@	c #44405C",
"Z@	c #B0B0B0",
"`@	c #A9A9A9",
" #	c #515151",
".#	c #454063",
"+#	c #3C3660",
"@#	c #494273",
"##	c #4D4579",
"$#	c #A10F1A",
"%#	c #EE0000",
"&#	c #DF0000",
"*#	c #FC0000",
"=#	c #7C243F",
"-#	c #534F87",
";#	c #12A4B0",
">#	c #00FDFD",
",#	c #0FAAB4",
"'#	c #514F86",
")#	c #3F3D50",
"!#	c #1E1B30",
"~#	c #464451",
"{#	c #585858",
"]#	c #444154",
"^#	c #3F3965",
"/#	c #514A81",
"(#	c #50497F",
"_#	c #483E6D",
":#	c #E20101",
"<#	c #CF0000",
"[#	c #BA0000",
"}#	c #B20C16",
"|#	c #57508B",
"1#	c #346589",
"2#	c #1B96A8",
"3#	c #1B96A9",
"4#	c #32688A",
"5#	c #423C68",
"6#	c #232038",
"7#	c #282540",
"8#	c #46454C",
"9#	c #4F4F4F",
"0#	c #666666",
"a#	c #7D7D7D",
"b#	c #7C7C7C",
"c#	c #616161",
"d#	c #44424C",
"e#	c #454068",
"f#	c #514C6B",
"g#	c #6B687E",
"h#	c #8B8998",
"i#	c #9795A0",
"j#	c #8F8E94",
"k#	c #979698",
"l#	c #89898B",
"m#	c #8F8E93",
"n#	c #6C6980",
"o#	c #534F70",
"p#	c #48436D",
"q#	c #4A4374",
"r#	c #CA0408",
"s#	c #D90000",
"t#	c #CD0000",
"u#	c #FA0000",
"v#	c #9A1423",
"w#	c #332F52",
"x#	c #2B2745",
"y#	c #494375",
"z#	c #433D6A",
"A#	c #494370",
"B#	c #46425B",
"C#	c #49484E",
"D#	c #48474F",
"E#	c #46425E",
"F#	c #4B4473",
"G#	c #33304C",
"H#	c #3F3963",
"I#	c #612B4A",
"J#	c #D50305",
"K#	c #F20000",
"L#	c #BF070D",
"M#	c #483156",
"N#	c #453F6D",
"O#	c #38345A",
"P#	c #2D2948",
"Q#	c #3B365F",
"R#	c #353155",
"S#	c #433C6B",
"T#	c #A6A6AA",
"U#	c #6F6D7B",
"V#	c #493F6F",
"W#	c #4E365E",
"X#	c #322E50",
"Y#	c #2E2A4A",
"Z#	c #373359",
"`#	c #3D3862",
" $	c #514982",
".$	c #423E5C",
"+$	c #403B66",
"@$	c #343053",
"#$	c #2F2B4B",
"$$	c #504E60",
"%$	c #D3D3D4",
"&$	c #454161",
"*$	c #373257",
"=$	c #3A355C",
"-$	c #363156",
";$	c #716F7E",
">$	c #403C57",
",$	c #47416A",
"'$	c #39355C",
")$	c #39345C",
"!$	c #342F52",
"~$	c #363257",
"{$	c #312C4E",
"]$	c #302C4C",
"^$	c #312D4E",
"/$	c #8A8992",
"($	c #4F4D61",
"_$	c #484263",
":$	c #615E3B",
"<$	c #878515",
"[$	c #AFAF02",
"}$	c #9B9B08",
"|$	c #727028",
"1$	c #4F4A51",
"2$	c #4A4475",
"3$	c #322E51",
"4$	c #353055",
"5$	c #47445A",
"6$	c #AAAAAA",
"7$	c #A6A6A7",
"8$	c #7A797D",
"9$	c #363157",
"0$	c #3D385F",
"a$	c #8C8C91",
"b$	c #4C4759",
"c$	c #AEAE02",
"d$	c #C2C200",
"e$	c #BFBF00",
"f$	c #726F24",
"g$	c #322D4F",
"h$	c #4E4C60",
"i$	c #B4B4B4",
"j$	c #959595",
"k$	c #8E8E90",
"l$	c #73727F",
"m$	c #4D4965",
"n$	c #4A4372",
"o$	c #93920D",
"p$	c #C0C000",
"q$	c #A5A500",
"r$	c #AAAA00",
"s$	c #A4A400",
"t$	c #B7B700",
"u$	c #BCBC00",
"v$	c #565245",
"w$	c #353156",
"x$	c #2C2846",
"y$	c #868688",
"z$	c #413D5C",
"A$	c #6D6A28",
"B$	c #A8A800",
"C$	c #F0F000",
"D$	c #FFFF00",
"E$	c #FEFE00",
"F$	c #C8C800",
"G$	c #ADAD00",
"H$	c #A6A605",
"I$	c #4A4465",
"J$	c #27243F",
"K$	c #808085",
"L$	c #7C7B80",
"M$	c #8F8F91",
"N$	c #B1B1B2",
"O$	c #76757C",
"P$	c #9A999F",
"Q$	c #A2A205",
"R$	c #A6A600",
"S$	c #F4F400",
"T$	c #EAEA00",
"U$	c #F1F100",
"V$	c #5D5A40",
"W$	c #302C4D",
"X$	c #242139",
"Y$	c #413E55",
"Z$	c #6E6C77",
"`$	c #707070",
" %	c #B6B6B6",
".%	c #989898",
"+%	c #302C4B",
"@%	c #92919C",
"#%	c #A4A404",
"$%	c #B1B100",
"%%	c #FDFD00",
"&%	c #CCCC00",
"*%	c #FCFC00",
"=%	c #DCDC00",
"-%	c #B2B200",
";%	c #5E5B3F",
">%	c #676670",
",%	c #4F4C62",
"'%	c #949494",
")%	c #7B7B7B",
"!%	c #2F2C4B",
"~%	c #9F9EA8",
"{%	c #484271",
"]%	c #A6A504",
"^%	c #AEAE00",
"/%	c #C9C900",
"(%	c #EEEE00",
"_%	c #D4D400",
":%	c #5F5C3F",
"<%	c #3F3B59",
"[%	c #E2E2E2",
"}%	c #565365",
"|%	c #2A2643",
"1%	c #5D5A70",
"2%	c #44415A",
"3%	c #5D5B6B",
"4%	c #717078",
"5%	c #C8C8C8",
"6%	c #A3A3A4",
"7%	c #575566",
"8%	c #D3D3D3",
"9%	c #96969A",
"0%	c #494272",
"a%	c #A0A005",
"b%	c #E6E600",
"c%	c #ACAC00",
"d%	c #5B5741",
"e%	c #83828B",
"f%	c #3D3860",
"g%	c #4F4B70",
"h%	c #585477",
"i%	c #4E496F",
"j%	c #696875",
"k%	c #38354F",
"l%	c #373258",
"m%	c #8A8A8A",
"n%	c #858587",
"o%	c #4B4763",
"p%	c #403A64",
"q%	c #5A573B",
"r%	c #D0D000",
"s%	c #AFAF00",
"t%	c #B6B600",
"u%	c #92910E",
"v%	c #4A4470",
"w%	c #DCDCDC",
"x%	c #DDDCE3",
"y%	c #F9F9FA",
"z%	c #FFFFFF",
"A%	c #B8B6C5",
"B%	c #84838C",
"C%	c #4C4961",
"D%	c #DFDFDF",
"E%	c #3A355E",
"F%	c #8D8C95",
"G%	c #4A475E",
"H%	c #78771D",
"I%	c #B8B800",
"J%	c #9D9D00",
"K%	c #A9A900",
"L%	c #C1C100",
"M%	c #AEAE03",
"N%	c #4C475A",
"O%	c #5C5970",
"P%	c #ADABBC",
"Q%	c #9F9DB1",
"R%	c #B7B6C5",
"S%	c #9D9DA0",
"T%	c #464356",
"U%	c #807E8A",
"V%	c #38335A",
"W%	c #423F58",
"X%	c #838387",
"Y%	c #848388",
"Z%	c #62616A",
"`%	c #413C5D",
" &	c #49436C",
".&	c #888710",
"+&	c #A5A505",
"@&	c #5A563F",
"#&	c #ADADB0",
"$&	c #696685",
"%&	c #343054",
"&&	c #666574",
"*&	c #423E5A",
"=&	c #453F6B",
"-&	c #ACABAF",
";&	c #797883",
">&	c #4A445C",
",&	c #676433",
"'&	c #8D8C0F",
")&	c #797820",
"!&	c #555149",
"~&	c #48426F",
"{&	c #676573",
"]&	c #6A6685",
"^&	c #332F4C",
"/&	c #787783",
"(&	c #3D3957",
"_&	c #413C66",
":&	c #939299",
"<&	c #61606E",
"[&	c #555264",
"}&	c #494659",
"|&	c #8E8D94",
"1&	c #4D4A65",
"2&	c #94939A",
"3&	c #383457",
"4&	c #3C375D",
"5&	c #818089",
"6&	c #433E66",
"7&	c #706C8A",
"8&	c #BBB9C7",
"9&	c #443F67",
"0&	c #3E3962",
"a&	c #87868E",
"b&	c #3C375F",
"c&	c #A6A5A8",
"d&	c #4E4B65",
"e&	c #4C4769",
"f&	c #4D496B",
"g&	c #44405D",
"h&	c #6A6879",
"i&	c #5C596F",
"j&	c #474362",
"k&	c #4E4A6D",
"l&	c #494565",
"m&	c #58556B",
"n&	c #86858D",
"o&	c #E5E4EA",
"p&	c #D5D5D6",
"q&	c #7A7692",
"r&	c #83809A",
"s&	c #454257",
"t&	c #434155",
"u&	c #9A999E",
"v&	c #98989B",
"w&	c #403E52",
"x&	c #484656",
"y&	c #3E3C51",
"z&	c #464456",
"A&	c #2D2A48",
"B&	c #5A5965",
"C&	c #DDDDDD",
"                                                  . + @ # $ % & * = - ; = > , ' ) ! ~ { ]                                                   ",
"                                            ^ / ( _ : < [ = } | 1 & 2 2 & 1 | } = [ 3 4 5 6 7 8                                             ",
"                      9 0 a b c     d e f g h i 1 2 j j j j j j j j j j j j j j j j j j , k l m g n o p q r s t u v w                       ",
"                  x           y z A B C D j j j j j j j j j j j j j j j j j j j j j j j j j j j j 1 E F G H I J K L M b N                   ",
"                O         P Q R C 2 j j j j j j j j j j j j j j j j j j j j j j j j j j j j j j j j j j S T U V W X Y Z `  .                ",
"                    ..+.@.#.$.%.j j j j j j j j j j j j j j j j j j j j j j j j j j j j j j j j j j j j j j &.1 *.=.-.;.>.,.                ",
"              '.).!.~.{.k ].D &.^./.%.j j j j j j j j j j j j j j j j j j j j j j j j j j j j j j j j (._.:.<.S k [.}.|.1.2.3.              ",
"            4.5.6.7.7.7.7.7.7.7.7.8.9.0.a.j j j j j j j j j j j j j j j j j j j j j j j j j j j j b.c.<.7.7.7.7.7.7.7.7.7.d.e.f.            ",
"          g.8.7.7.7.7.7.7.7.7.7.7.7.7.d.h.%.j j j j j j j j j j j j j j j j j j j j j j j j j j i.j.7.7.7.k.l.m.n.o.p.7.7.7.7.q.r.          ",
"        s.7.7.7.7.7.7.d.t.D u.7.7.7.7.7.7.^.v.j j j j j j j j j j j j j j j j j j j j j j j j :.%.7.7.7.w.x.y.z.A.B.C.8.7.7.7.7.d.D.        ",
"      E.7.7.7.7.F.G.H.D 7.} , %.v.7.7.7.7.7._.I.j j j j j j j j j j j j j j j j j j j j j j J.v.7.7.7.].K.L.M.N.L.L.O.q.7.7.7.7.7.F.P.      ",
"    Q.6.7.7.7.R.S._ T.T.U.U.T.T.V.v.}.7.7.7.F.W.j j j j j j j j j j j j j j j j j j j j j X.Y.7.7.7.7.Z.`.L. +.+++@+#+j 9.$+7.7.7.7.%+&+    ",
"  *+D 7.7.7.<.| T.=+-+;+>+,+'+)+!+T.D ~+7.7.7.R.{+j j j j j j j j j j j j j j j j j j j j 0.F.7.7.7.7.]+^+/+(+_+m m m m T.<.]+6.k 7.7.:+    ",
"  <+7.7.7.{.& T.[+}+|+1+2+3+4+5+6+l T.I.k 7.7.7._.j j j j j j j j j j j j j j j j j j j 7+j.7.7.7.7.S ~+m m m m m m m m m m j 8+9+0+k.8.a+  ",
"  $.7.7.7.G.T.!+b+c+ .d+e+e+d+f+g+h+i+U.j+7.7.7.k+S.j j j j X.J.v.G.l+G.b.b.j+I.j j j j m+k.7.7.7.7.n+m m m o+p+q+q+r+h m m s+t+L.B.u+7.v+  ",
"w+7.7.7.{.x+T.y+z+z.A+B+e+e+B+C+b |+D+T.2 F.7.7.d._.j j j j E+F+W.G+H+/.I+G+J+v.j j j j K+7.7.7.7.7+L+m m M+N+O+P+P+Q+R+S+m m T+U+A+V+W+<.  ",
"X+7.7.7.G.h Y+Z+`+A+ @.@B.M.+@@@d+#@$@l =+G.7.7.7._.j j j j j j j j j j j j j j j j j j ^.7.7.7.7.v.m m m %@&@P+P+P+P+&@*@m m =@A.x -@;@>@,@",
"'@7.7.7.b.T.)@z+!@-@d+U+e+d+~@e+{@c |+]@T.G.7.7.7.H+j j j j j j j ^@/@(@_@j j j j j j j :@7.7.7.7.<.m m <@[@P+P+}@|@P+P+1@2@m 3@4@5@.@6@7.7@",
"8@7.7.7.%.T.9@0@t+a@+@e+L.L.e+e+b@z.c@]@T.&.7.7.7.^.j j j j j j j d@e@e@f@j j j j j j X.g@7.7.7.7.a.m m h@i@P+P+j@k@P+P+l@m@m n@o@L..@Z.7.p@",
"q@7.7.7.&.T.9@z+r@U+d+ @+@e+@@e+{@ .|+]@T.G.7.7.7.:.j j j j j j j s@y.t+t@j j j j j j %.v.7.7.7.7.<.m m u@v@P+P+w@w@P+P+x@y@m z@A@a@B@>@7.C@",
"D@7.7.7.G.U.d.E@F@A+b@ @B.B.G@U+d+H@I@L+!+9.7.7.7.J@j j j j j j j K@L@M@N@j j j j j j G.<.7.7.O@P@Q@R@S@m T@&@P+P+P+P+P+U@m m m V@W@k.7.>@C@",
"X@7.7.7.t.} T.Y@g+Z@e+@@e+e+~@A+`@ #.#T.D d.7.7.7.i.a.j j j j j j j j j j j j j j j j +#@#7.##$#%#&#*#=#m -#;#>#P+P+&@,#'#m m - H.7.7.7.R.)#",
"!#R.7.7.7.v.T.<@~#4+!@e++@+@+@ .{#]#U.T.^#7.7.7.7.R.J.j j & k } > i /#/#i (#Y+k , j j /.6.7._#:#<#[#*#}#T.m |#1#2#3#4#u@m m m 5#7.7.7.7.H+6#",
"7#0.7.7.7.t.%+T.[+8#9#0#a#b#c#5+d#l T.j 1 7.7.7.7.F.:.t.e#f#g#h#i#j#k#l#m#i#h#n#o#p#k ^.7.7.q#r#s#t#u#v#m m m m m m m m m m 1 2 7.7.7.8.w#7#",
"x#w#y#7.7.7.z#Y+T.=+A#B#C#D#E#F#h T.%+X.7.7.7.7.7.7.G#                                H#7.7.7.I#J#K#L#M#]+T.m m m m m m z@, N#7.7.7.7.9.O#x#",
"P#Q#R#7.7.7.7.<.a.h T.T.[ =+T.T.=+S#~+7.7.7.7.7.7.7.t.T#                            U#6.7.7.7.7.V#W#q#7.1 j+@#<@m m =+S G.q.7.7.7.7.k.X#J@P#",
"Y#J@Z#`#7.7.7.7.$+j+K@S =  $& $.G.u.7.7.7.7.7.7.7.7.7..$                            +$7.7.7.7.7.7.7.7.7.7.7.$+v.J.J.v.$+7.7.7.7.7.7.@$Q#J@Y#",
"#$J@J@R#j+7.7.7.7.7.7.k.<.R.d.7.7.7.7.7.7.7.7.7.7.7.7.6.$$                      %$&$7.7.7.7.7.7.7.7.7.7.7.7.7.7.7.7.7.7.7.7.7.7.8.*$=$J@J@#$",
"#$J@J@J@-$Y.8.7.7.7.7.7.7.7.7.7.7.7.7.7.7.$+7+z#t.7.7.7.k ;$                  %$>$7.7.7.7.8.,$q#7.7.7.7.7.7.7.7.7.7.7.7.7.7.7.k @$'$J@J@J@#$",
"#$J@J@J@J@)$!$N#7.7.7.7.7.7.7.7.7.7.7.1 ~${$]$^$]$J+G.7.7.{./$                ($8.7.7._$:$<$[$}$|$1$2$7.7.7.7.7.7.7.7.7.7.7.g@3$Q#J@J@J@J@#$",
"#$J@J@J@J@J@J@4$-$1 7.7.7.7.7.7.7.7.t.X#^.5$6$7$8$Q#9$=$7.7.0$              a$S 7.7.b$c$d$d$d$d$d$e$f$F.7.7.7.7.7.7.7.7.<.w#O#J@J@J@J@J@J@#$",
"Y#J@J@J@J@J@J@J@J@J+J@>@7.7.7.7.7.F.g$Q#Q#h$i$j$k$Q#Q#9$j+7.7.l$            m$7.7.n$o$d$p$q$r$s$t$d$u$v$7.7.7.7.7.7.k ~$w$J@J@J@J@J@J@J@J@Y#",
"x$J@J@J@J@J@J@J@J@J@_.@$k 7.7.7.7.{+)$Q#Q#h$!@N.y$Q#Q#Q#X#7.7.z$            K@7.>@A$d$p$B$C$D$E$F$G$d$H$I$7.7.7.7.R.X#Q#J@J@J@J@J@J@J@J@J@x$",
"J$J@J@J@J@J@J@J@J@J@J@Q#X#$+7.7.7.4$$$K$L$M$B+{@N$L$K$O$]$R.7.+$          P$F.7.@#Q$d$R$S$D$T$U$D$t$d$d$V$7.7.7.z#W$J@J@J@J@J@J@J@J@J@J@J@J$",
"X$J@J@J@J@J@J@J@J@J@J@J@^$Y$7.7.7.w#Z$5@F@B.a `$ %4@.%i$+%j+7.D           @%7.7.{.#%d$$%D$%%&%*%D$=%-%d$;%7.7.k.>%^$J@J@J@J@J@J@J@J@J@J@J@X$",
",%J@J@J@J@J@J@J@J@J@J@J@Y#  v.7.7.w#Z$G@'%B.'%)%G@r@6$d+!%k+7.R.          ~%6.7.{%]%d$^%D$E$/%(%D$_%t$d$:%7.7.<%[%Y#J@J@J@J@J@J@J@J@J@J@J@,%",
"}%J@J@J@J@J@J@J@J@J@J@J@|%  1%7.7.~$2%3%3%4%B.5%6%3%3%7%W$D 7.j.8%        9%d.7.0%a%d$r$b%D$D$D$D$c%d$d$d%7.8.e%  |%J@J@J@f%g%h%i%J@J@J@J@}%",
"j%J@J@J@J@J@J@J@J@J@J@J@k%  P$d.7.v.l%Q#Q#h$ .m%n%Q#Q#Q#G+7.7.o%            p%7.7.q%p$d$R$r%*%T$s%t%d$u%v%7.i.w%  k%J@J@W@x%y%z%A%J@J@J@J@j%",
"B%J@J@J@J@J@J@J@J@J@J@J@C%  D%_.7.7.@$E%Q#h$G@9 M$Q#Q#G+R.7.F.F%            G%7.7.F.H%d$d$I%J%K%L%d$M%N%7.7.O%    C%J@J@W@P%Q%z%R%J@J@J@J@B%",
"S%^.J@J@J@J@J@J@J@J@J@J@T%    U%F.7.$+w#V%W%X%Y%Z%^.3$v.7.7.`%                z#7.7. &.&I%d$d$d$p$+&@&7.7.<.#&    T%J@J@J@J@$&z%R%J@J@J@^.S%",
"  %&J@J@J@J@J@J@J@J@J@J@&&      *&7.7.8.i.G+3$3$3$0.{.7.7.=&-&                ;&[.7.7.k.>&,&'&)&!&~&7.7.d.{&      &&J@J@J@J@]&z%A%J@J@J@%&  ",
"  ^&J@J@J@J@J@J@J@J@J@J@/&        (&7.7.7.7.W+$+6.7.7.7._&:&                    <&D 7.7.7.7.W+7.7.7.7.k [&        /&J@J@J@J@$&z%R%J@J@J@^&  ",
"  }&J@J@J@J@J@J@J@J@J@J@|&          7%~.6.7.7.7.7.7.S 1&                          2&3&W+7.7.7.7.7.F.4&5&          |&J@J@J@6&7&z%8&9&0&J@}&  ",
"  a&b&J@J@J@J@J@J@J@J@_.c&              C.d&e&f&g&h&                                  2&i&j&k&l&m&n&              c&_.J@J@o&z%z%z%z%7&b&a&  ",
"    w#J@J@J@J@J@J@J@J@]$p&                                                                                        p&]$J@J@q&r&r&r&r&g%w#    ",
"    s&J@J@J@J@J@J@J@J@t&                                                                                            t&J@J@J@J@J@J@J@J@s&    ",
"    u&'$J@J@J@J@J@J@O#v&                                                                                            v&O#J@J@J@J@J@J@'$u&    ",
"      w&J@J@J@J@J@J@x&                                                                                                x&J@J@J@J@J@J@w&      ",
"        ^&J@J@J@Q#y&                                                                                                    y&Q#J@J@J@^&        ",
"          z&A&|%B&C&                                                                                                      B&|%A&z&          "};
