/* XPM */
static char * quit_xpm[] = {
"100 100 67 1",
" 	c #C0C0C0",
".	c #B6B6B6",
"+	c #777777",
"@	c #474747",
"#	c #2D2D2D",
"$	c #242424",
"%	c #464646",
"&	c #767676",
"*	c #222222",
"=	c #A1A1A1",
"-	c #333333",
";	c #383838",
">	c #888888",
",	c #B1B1B1",
"'	c #BCBCBC",
")	c #898989",
"!	c #393939",
"~	c #323232",
"{	c #9F9F9F",
"]	c #B2B2B2",
"^	c #2F2F2F",
"/	c #353535",
"(	c #B4B4B4",
"_	c #B5B5B5",
":	c #303030",
"<	c #6B6B6B",
"[	c #808080",
"}	c #3C3C3C",
"|	c #AAAAAA",
"1	c #272727",
"2	c #BBBBBB",
"3	c #282828",
"4	c #262626",
"5	c #3B3B3B",
"6	c #252525",
"7	c #696969",
"8	c #606060",
"9	c #ABABAB",
"0	c #A5A5A5",
"a	c #595959",
"b	c #797979",
"c	c #787878",
"d	c #9E9E9E",
"e	c #BDBDBD",
"f	c #8A8A8A",
"g	c #3A3A3A",
"h	c #848484",
"i	c #7F7F7F",
"j	c #BEBEBE",
"k	c #A4A4A4",
"l	c #2C2C2C",
"m	c #5B5B5B",
"n	c #A2A2A2",
"o	c #A6A6A6",
"p	c #5C5C5C",
"q	c #343434",
"r	c #949494",
"s	c #2A2A2A",
"t	c #828282",
"u	c #757575",
"v	c #414141",
"w	c #979797",
"x	c #525252",
"y	c #434343",
"z	c #C5C5C5",
"A	c #000000",
"B	c #FFFFFF",
"                                                                                                    ",
"                                                                                                    ",
"                                                                                                    ",
"                                                                                                    ",
"                                                                                                    ",
"                                                                                                    ",
"                                                                                                    ",
"                                                                                                    ",
"                                                                                                    ",
"                                                                                                    ",
"                         .+@#$#%&.    ****     ***  ****  **********                                ",
"                        =-;>,',)!~{    **       *    **   *   **   *                                ",
"                       ]^/(     _/^]   **       *    **   :   **   :                                ",
"                       <*[       [*<   **       *    **       **                                    ",
"                       }*|       |*}   **       *    **       **                                    ",
"                       1*2       2*3   **       *    **       **                                    ",
"                       1*2       2*4   **       *    **       **                                    ",
"                       5*|       |*;   6*'     26    **       **                                    ",
"                       7*[       [*8   -*9     |-    **       **                                    ",
"                       ,#/.     ./60   a*b     ca    **       **                                    ",
"                        d~!)]e]fg$h    033i,j][^k    **       **                                    ",
"                         .&@#**lmn      op/66qm0    ****     ****                                   ",
"                             r*st]j                                                                 ",
"                              u***v                                                                 ",
"                               wx^y                                                                 ",
"                                                                                                    ",
"                                                                                                    ",
"                                                                                                    ",
"                                                                                                    ",
"                                                                                                    ",
"                                                                                                    ",
"                                                                               z                    ",
"                                                                                                    ",
"                                                                                                    ",
"                                                                                                    ",
"                                   AAAAAAAA                                                         ",
"                                   AAAAAAAA                                                         ",
"                                   AAAAAAAA                                                         ",
"                                   AAAAAAAA                                                         ",
"                        AAA    AAAA        AAA                                                      ",
"                        AAA    AAAA        AAA                                                      ",
"                        AAA    AAAA        AAA                                                      ",
"                        AAA    AAAA        AAA                                                      ",
"                                              AAAA                                                  ",
"                                              AAAA                                                  ",
"                                              AAAA                                                  ",
"                    AAAA       AAAA               AAAA                                              ",
"                    AAAA       AAAA               AAAA                                              ",
"                    AAAA       AAAA               AAAA                                              ",
"                    AAAA       AAAA               AAAA                                              ",
"                           AAAA            AAAAAAAAAAAAAAAAAAA                                      ",
"                           AAAA            AAAAAAAAAAAAAAAAAAA                                      ",
"                           AAAA            AAAAAAAAAAAAAAAAAAA                                      ",
"                           AAAA            AAAAAAAAAAAAAAAAAAA                                      ",
"                                           AAAAAAAAAAAAAAAAAAA                                      ",
"                                           AAAAAAAAAAAAAAAAAAA                                      ",
"                                           AAAAAAAAAAAAAAAAAAA                                      ",
"                                           AAAAAAAAAAAAAAAAAAA                                      ",
"                                   AAAAAAAAAAAAAAAAAAAAAAAAAAAAAAAAAA                               ",
"                                   AAAAAAAAAAAAAAAAAAAAAAAAAAAAAAAAAA                               ",
"                                   AAAAAAAAAAAAAAAAAAAAAAAAAAAAAAAAAA                               ",
"                                   AAAAAAAAAAAAAAAAAAAAAAAAAAAAAAAAAA                               ",
"                               AAAAAAAAAAAAAAAAAAAAAAAAAAAAAAAAAAAAAAAAAA                           ",
"                               AAAAAAAAAAAAAAAAAAAAAAAAAAAAAAAAAAAAAAAAAA                           ",
"                               AAAAAAAAAAAAAAAAAAAAAAAAAAAAAAAAAAAAAAAAAA                           ",
"                               AAAAAAAABBBBAAAAAAAAAAAAAAAAAAAAAAAAAAAAAA                           ",
"                               AAAAAAAABBBBAAAAAAAAAAAAAAAAAAAAAAAAAAAAAA                           ",
"                               AAAAAAAABBBBAAAAAAAAAAAAAAAAAAAAAAAAAAAAAA                           ",
"                               AAAAAAAABBBBAAAAAAAAAAAAAAAAAAAAAAAAAAAAAA                           ",
"                           AAAAAAAAAAAAAAAAAAAAAAAAAAAAAAAAAAAAAAAAAAAAAAAAAA                       ",
"                           AAAAAAAAAAAAAAAAAAAAAAAAAAAAAAAAAAAAAAAAAAAAAAAAAA                       ",
"                           AAAAAAAAAAAAAAAAAAAAAAAAAAAAAAAAAAAAAAAAAAAAAAAAAA                       ",
"                           AAAAAAAAAAAAAAAAAAAAAAAAAAAAAAAAAAAAAAAAAAAAAAAAAA                       ",
"                           AAAAAAAAAAAAAAAAAAAAAAAAAAAAAAABBBBAAAAAAAAAAAAAAA                       ",
"                           AAAAAAAAAAAAAAAAAAAAAAAAAAAAAAABBBBAAAAAAAAAAAAAAA                       ",
"                           AAAAAAAAAAAAAAAAAAAAAAAAAAAAAAABBBBAAAAAAAAAAAAAAA                       ",
"                           AAAAAAAAAAAAAAAAAAAAAAAAAAAAAAABBBBAAAAAAAAAAAAAAA                       ",
"                               AAAAAAAAAAAAAAAAAAAAAAAAAAABBBBAAAAAAAAAAA                           ",
"                               AAAAAAAAAAAAAAAAAAAAAAAAAAABBBBAAAAAAAAAAA                           ",
"                               AAAAAAAAAAAAAAAAAAAAAAAAAAABBBBAAAAAAAAAAA                           ",
"                               AAAAAAAAAAAAAAAAAAAAAAAAAAABBBBAAAAAAAAAAA                           ",
"                               AAAAAAAAAAAAAAAAAAAAAAABBBBAAAAAAAAAAAAAAA                           ",
"                               AAAAAAAAAAAAAAAAAAAAAAABBBBAAAAAAAAAAAAAAA                           ",
"                               AAAAAAAAAAAAAAAAAAAAAAABBBBAAAAAAAAAAAAAAA                           ",
"                                   AAAAAAAAAAAAAAAAAAAAAAAAAAAAAAAAAA                               ",
"                                   AAAAAAAAAAAAAAAAAAAAAAAAAAAAAAAAAA                               ",
"                                   AAAAAAAAAAAAAAAAAAAAAAAAAAAAAAAAAA                               ",
"                                   AAAAAAAAAAAAAAAAAAAAAAAAAAAAAAAAAA                               ",
"                                       AAAAAAAAAAAAAAAAAAAAAAAAAA                                   ",
"                                       AAAAAAAAAAAAAAAAAAAAAAAAAA                                   ",
"                                       AAAAAAAAAAAAAAAAAAAAAAAAAA                                   ",
"                                       AAAAAAAAAAAAAAAAAAAAAAAAAA                                   ",
"                                              AAAAAAAAAAAA                                          ",
"                                              AAAAAAAAAAAA                                          ",
"                                              AAAAAAAAAAAA                                          ",
"                                              AAAAAAAAAAAA                                          ",
"                                                                                                    ",
"                                                                                                    ",
"                                                                                                    ",
"                                                                                                    "};
