/* XPM */
static char * wiimote1_xpm[] = {
"20 86 69 1",
" 	c None",
".	c #E3F6FF",
"+	c #38BFFF",
"@	c #00ACFF",
"#	c #08AFFF",
"$	c #81D6FF",
"%	c #A9E3FF",
"&	c #45C2FF",
"*	c #83D6FF",
"=	c #FFFFFF",
"-	c #F7FCFF",
";	c #1DB6FF",
">	c #ACE4FF",
",	c #3FC1FF",
"'	c #4BC4FF",
")	c #FAFDFF",
"!	c #CEEFFF",
"~	c #23B7FF",
"{	c #45C3FF",
"]	c #09AFFF",
"^	c #48C3FF",
"/	c #AAE3FF",
"(	c #4AC4FF",
"_	c #6CCFFF",
":	c #6ED0FF",
"<	c #31BCFF",
"[	c #39BEFF",
"}	c #8DDAFF",
"|	c #8FDAFF",
"1	c #DBF3FF",
"2	c #8CD9FF",
"3	c #A3E1FF",
"4	c #CAEEFF",
"5	c #CBEEFF",
"6	c #15B3FF",
"7	c #0CB0FF",
"8	c #43C2FF",
"9	c #E8F7FF",
"0	c #14B2FF",
"a	c #EDF9FF",
"b	c #5BCAFF",
"c	c #64CDFF",
"d	c #24B8FF",
"e	c #72D1FF",
"f	c #FCFEFF",
"g	c #35BDFF",
"h	c #82D6FF",
"i	c #12B2FF",
"j	c #34BDFF",
"k	c #01ACFF",
"l	c #0AAFFF",
"m	c #E1F5FF",
"n	c #7ED5FF",
"o	c #3ABFFF",
"p	c #7DD5FF",
"q	c #0BAFFF",
"r	c #17B3FF",
"s	c #5AC9FF",
"t	c #54C7FF",
"u	c #8FDBFF",
"v	c #1CB5FF",
"w	c #06AEFF",
"x	c #7AD4FF",
"y	c #55C8FF",
"z	c #0FB1FF",
"A	c #000080",
"B	c #38BEFF",
"C	c #DDF6FF",
"D	c #2BB9FF",
".+@@@@@@@@@@@@@@@@+.",
"+@@@@@@@@@@@@@@@@@@+",
"@@#$%&@@@@@@@@@@@@@@",
"@@*==-;@@@@@@@@@@@@@",
"@@>===,@@@@@@@@@@@@@",
"@@')=!#@@@@@@@@@@@@@",
"@@@~{]@@@@@@@@@@@@@@",
"@@@@@@@@@@@@@@@@@@@@",
"@@@@@@@@@@@@@@@@@@@@",
"@@@@@@@@@@@@@@@@@@@@",
"@@@@@@@@^//(@@@@@@@@",
"@@@@@@@@_==:@@@@@@@@",
"@@@@@@@@_==:@@@@@@@@",
"@@@@@<[[}==|[[<@@@@@",
"@@@@@1========1@@@@@",
"@@@@@1========1@@@@@",
"@@@@@2334==5332@@@@@",
"@@@@@@@@_==:@@@@@@@@",
"@@@@@@@@_==:@@@@@@@@",
"@@@@@@@@_==:@@@@@@@@",
"@@@@@@@@]66]@@@@@@@@",
"@@@@@@@@@@@@@@@@@@@@",
"@@@@@@@@@@@@@@@@@@@@",
"@@@@@@@@@@@@@@@@@@@@",
"@@@@@@@@7{{7@@@@@@@@",
"@@@@@@@89==98@@@@@@@",
"@@@@@@0a====a0@@@@@@",
"@@@@@@b======b@@@@@@",
"@@@@@@c======c@@@@@@",
"@@@@@@d)====)d@@@@@@",
"@@@@@@@ef==fe@@@@@@@",
"@@@@@@@@ghhg@@@@@@@@",
"@@@@@@@@@@@@@@@@@@@@",
"@@@@@@@@@@@@@@@@@@@@",
"@@@@@@@@@@@@@@@@@@@@",
"@@@@@@@@@@@@@@@@@@@@",
"@@@@@@@@@@@@@@@@@@@@",
"@@@@@@@@@@@@@@@@@@@@",
"@@@@@@@@@@@@@@@@@@@@",
"@@@@@@@@@@@@@@@@@@@@",
"@@@ijk@@@dd@@@kji@@@",
"@@lm=n@@o))o@@p=mq@@",
"@@r)=3@@s==s@@3=)r@@",
"@@@tuv@@wxxw@@vuy@@@",
"@@@@@@@@@@@@@@@@@@@@",
"@@@@@@@@@@@@@@@@@@@@",
"@@@@@@@@@@@@@@@@@@@@",
"@@@@@@@@@@@@@@@@@@@@",
"@@@@@@@@@@@@@@@@@@@@",
"@@@@@@@@@@@@@@@@@@@@",
"@@@@@@@@@@@@@@@@@@@@",
"@@@@@@@@@@@@@@@@@@@@",
"@@@@@@@@@@@@@@@@@@@@",
"@@@@@@@@@@@@@@@@@@@@",
"@@@@@@@@@@@@@@@@@@@@",
"@@@@@@@@@@@@@@@@@@@@",
"@@@@@@@@@@@@@@@@@@@@",
"@@@@@@@@@@@@@@@@@@@@",
"@@@@@@@@@@@@@@@@@@@@",
"@@@@@@@@@@@@@@@@@@@@",
"@@@@@@zAAAAA@@@@@@@@",
"@@@@@@AAAAAA@@@@@@@@",
"@@@@@@AAAAAA@@@@@@@@",
"@@@@@@@@@AAA@@@@@@@@",
"@@@@@@@@@AAA@@@@@@@@",
"@@@@@@@@@AAA@@@@@@@@",
"@@@@@@@@@AAA@@@@@@@@",
"@@@@@@@@@AAA@@@@@@@@",
"@@@@@@@@@AAA@@@@@@@@",
"@@@@@@@@@AAA@@@@@@@@",
"@@@@@@@@@AAA@@@@@@@@",
"@@@@@@@@@AAA@@@@@@@@",
"@@@@@@@@@AAA@@@@@@@@",
"@@@@@@@@@AAA@@@@@@@@",
"@@@@@@@@@AAA@@@@@@@@",
"@@@@@@AAAAAAAAA@@@@@",
"@@@@@@AAAAAAAAA@@@@@",
"@@@@@@AAAAAAAAA@@@@@",
"@@@@@@@@@@@@@@@@@@@@",
"@@@@@@@@@@@@@@@@@@@@",
"@@@@@@@@@@@@@@@@@@@@",
"@@@@@@@@@@@@@@@@@@@@",
"@@@@@@@@@@@@@@@@@@@@",
"@@@@@@@@@@@@@@@@@@@@",
"B@@@@@@@@@@@@@@@@@@B",
"CD@@@@@@@@@@@@@@@@DC"};
