/* XPM */
static char * wiimote2_xpm[] = {
"20 86 122 2",
"  	c None",
". 	c #E3F6FF",
"+ 	c #3FBFFF",
"@ 	c #00ACFF",
"# 	c #38BFFF",
"$ 	c #3FC3FF",
"% 	c #08AFFF",
"& 	c #81D6FF",
"* 	c #A9E3FF",
"= 	c #45C2FF",
"- 	c #82D6FF",
"; 	c #FFFFFF",
"> 	c #F7FCFF",
", 	c #1DB6FF",
"' 	c #ACE4FF",
") 	c #3FC1FF",
"! 	c #4AC4FF",
"~ 	c #FAFDFF",
"{ 	c #CFEFFF",
"] 	c #23B7FF",
"^ 	c #45C3FF",
"/ 	c #09AFFF",
"( 	c #48C3FF",
"_ 	c #AAE3FF",
": 	c #6CCFFF",
"< 	c #6ED0FF",
"[ 	c #31BCFF",
"} 	c #39BEFF",
"| 	c #8DDAFF",
"1 	c #8FDAFF",
"2 	c #DBF3FF",
"3 	c #8CD9FF",
"4 	c #A3E1FF",
"5 	c #CAEEFF",
"6 	c #CBEEFF",
"7 	c #15B3FF",
"8 	c #0CB0FF",
"9 	c #43C2FF",
"0 	c #E7F7FF",
"a 	c #E8F7FF",
"b 	c #13B2FF",
"c 	c #ECF9FF",
"d 	c #EDF9FF",
"e 	c #14B2FF",
"f 	c #5BCAFF",
"g 	c #64CCFF",
"h 	c #64CDFF",
"i 	c #24B8FF",
"j 	c #25B8FF",
"k 	c #72D1FF",
"l 	c #FCFEFF",
"m 	c #73D1FF",
"n 	c #35BDFF",
"o 	c #12B2FF",
"p 	c #34BDFF",
"q 	c #01ACFF",
"r 	c #0AAFFF",
"s 	c #E0F5FF",
"t 	c #7ED5FF",
"u 	c #39BFFF",
"v 	c #3ABFFF",
"w 	c #7DD5FF",
"x 	c #E1F5FF",
"y 	c #0BAFFF",
"z 	c #16B3FF",
"A 	c #5AC9FF",
"B 	c #17B3FF",
"C 	c #54C7FF",
"D 	c #8FDBFF",
"E 	c #1CB5FF",
"F 	c #06AEFF",
"G 	c #7AD4FF",
"H 	c #55C8FF",
"I 	c #0092EC",
"J 	c #0064CA",
"K 	c #004EB9",
"L 	c #0067CC",
"M 	c #009BF3",
"N 	c #002FA2",
"O 	c #000080",
"P 	c #000583",
"Q 	c #0061C8",
"R 	c #0040AF",
"S 	c #0076D7",
"T 	c #0084E2",
"U 	c #002198",
"V 	c #007CDC",
"W 	c #005DC5",
"X 	c #000885",
"Y 	c #00249A",
"Z 	c #00AAFE",
"` 	c #000180",
" .	c #00A7FC",
"..	c #0077D8",
"+.	c #00A6FB",
"@.	c #0050BB",
"#.	c #00158F",
"$.	c #009AF2",
"%.	c #000A87",
"&.	c #0052BC",
"*.	c #00289D",
"=.	c #00108B",
"-.	c #00A1F7",
";.	c #00A9FD",
">.	c #0037A8",
",.	c #000281",
"'.	c #007FDE",
").	c #0038A9",
"!.	c #006CD0",
"~.	c #0031A4",
"{.	c #0069CE",
"].	c #00299E",
"^.	c #0053BD",
"/.	c #008CE8",
"(.	c #00A3F9",
"_.	c #002097",
":.	c #006DD1",
"<.	c #0034A6",
"[.	c #38BEFF",
"}.	c #DDF6FF",
"|.	c #2BB9FF",
"1.	c #2BBAFF",
". + @ @ @ @ @ @ @ @ @ @ @ @ @ @ @ @ # . ",
"$ @ @ @ @ @ @ @ @ @ @ @ @ @ @ @ @ @ @ # ",
"@ @ % & * = @ @ @ @ @ @ @ @ @ @ @ @ @ @ ",
"@ @ - ; ; > , @ @ @ @ @ @ @ @ @ @ @ @ @ ",
"@ @ ' ; ; ; ) @ @ @ @ @ @ @ @ @ @ @ @ @ ",
"@ @ ! ~ ; { % @ @ @ @ @ @ @ @ @ @ @ @ @ ",
"@ @ @ ] ^ / @ @ @ @ @ @ @ @ @ @ @ @ @ @ ",
"@ @ @ @ @ @ @ @ @ @ @ @ @ @ @ @ @ @ @ @ ",
"@ @ @ @ @ @ @ @ @ @ @ @ @ @ @ @ @ @ @ @ ",
"@ @ @ @ @ @ @ @ @ @ @ @ @ @ @ @ @ @ @ @ ",
"@ @ @ @ @ @ @ @ ( _ _ ! @ @ @ @ @ @ @ @ ",
"@ @ @ @ @ @ @ @ : ; ; < @ @ @ @ @ @ @ @ ",
"@ @ @ @ @ @ @ @ : ; ; < @ @ @ @ @ @ @ @ ",
"@ @ @ @ @ [ } } | ; ; 1 } } [ @ @ @ @ @ ",
"@ @ @ @ @ 2 ; ; ; ; ; ; ; ; 2 @ @ @ @ @ ",
"@ @ @ @ @ 2 ; ; ; ; ; ; ; ; 2 @ @ @ @ @ ",
"@ @ @ @ @ 3 4 4 5 ; ; 6 4 4 3 @ @ @ @ @ ",
"@ @ @ @ @ @ @ @ : ; ; < @ @ @ @ @ @ @ @ ",
"@ @ @ @ @ @ @ @ : ; ; < @ @ @ @ @ @ @ @ ",
"@ @ @ @ @ @ @ @ : ; ; < @ @ @ @ @ @ @ @ ",
"@ @ @ @ @ @ @ @ / 7 7 / @ @ @ @ @ @ @ @ ",
"@ @ @ @ @ @ @ @ @ @ @ @ @ @ @ @ @ @ @ @ ",
"@ @ @ @ @ @ @ @ @ @ @ @ @ @ @ @ @ @ @ @ ",
"@ @ @ @ @ @ @ @ @ @ @ @ @ @ @ @ @ @ @ @ ",
"@ @ @ @ @ @ @ @ 8 = ^ 8 @ @ @ @ @ @ @ @ ",
"@ @ @ @ @ @ @ 9 0 ; ; a 9 @ @ @ @ @ @ @ ",
"@ @ @ @ @ @ b c ; ; ; ; d e @ @ @ @ @ @ ",
"@ @ @ @ @ @ f ; ; ; ; ; ; f @ @ @ @ @ @ ",
"@ @ @ @ @ @ g ; ; ; ; ; ; h @ @ @ @ @ @ ",
"@ @ @ @ @ @ i ~ ; ; ; ; ~ j @ @ @ @ @ @ ",
"@ @ @ @ @ @ @ k l ; ; l m @ @ @ @ @ @ @ ",
"@ @ @ @ @ @ @ @ n - - n @ @ @ @ @ @ @ @ ",
"@ @ @ @ @ @ @ @ @ @ @ @ @ @ @ @ @ @ @ @ ",
"@ @ @ @ @ @ @ @ @ @ @ @ @ @ @ @ @ @ @ @ ",
"@ @ @ @ @ @ @ @ @ @ @ @ @ @ @ @ @ @ @ @ ",
"@ @ @ @ @ @ @ @ @ @ @ @ @ @ @ @ @ @ @ @ ",
"@ @ @ @ @ @ @ @ @ @ @ @ @ @ @ @ @ @ @ @ ",
"@ @ @ @ @ @ @ @ @ @ @ @ @ @ @ @ @ @ @ @ ",
"@ @ @ @ @ @ @ @ @ @ @ @ @ @ @ @ @ @ @ @ ",
"@ @ @ @ @ @ @ @ @ @ @ @ @ @ @ @ @ @ @ @ ",
"@ @ @ o p q @ @ @ i i @ @ @ q p o @ @ @ ",
"@ @ r s ; t @ @ u ~ ~ v @ @ w ; x y @ @ ",
"@ @ z ~ ; 4 @ @ A ; ; A @ @ 4 ; ~ B @ @ ",
"@ @ @ C D E @ @ F G G F @ @ E D H @ @ @ ",
"@ @ @ @ @ @ @ @ @ @ @ @ @ @ @ @ @ @ @ @ ",
"@ @ @ @ @ @ @ @ @ @ @ @ @ @ @ @ @ @ @ @ ",
"@ @ @ @ @ @ @ @ @ @ @ @ @ @ @ @ @ @ @ @ ",
"@ @ @ @ @ @ @ @ @ @ @ @ @ @ @ @ @ @ @ @ ",
"@ @ @ @ @ @ @ @ @ @ @ @ @ @ @ @ @ @ @ @ ",
"@ @ @ @ @ @ @ @ @ @ @ @ @ @ @ @ @ @ @ @ ",
"@ @ @ @ @ @ @ @ @ @ @ @ @ @ @ @ @ @ @ @ ",
"@ @ @ @ @ @ @ @ @ @ @ @ @ @ @ @ @ @ @ @ ",
"@ @ @ @ @ @ @ @ @ @ @ @ @ @ @ @ @ @ @ @ ",
"@ @ @ @ @ @ @ @ @ @ @ @ @ @ @ @ @ @ @ @ ",
"@ @ @ @ @ @ @ @ @ @ @ @ @ @ @ @ @ @ @ @ ",
"@ @ @ @ @ @ @ @ @ @ @ @ @ @ @ @ @ @ @ @ ",
"@ @ @ @ @ @ @ @ @ @ @ @ @ @ @ @ @ @ @ @ ",
"@ @ @ @ @ @ @ @ @ @ @ @ @ @ @ @ @ @ @ @ ",
"@ @ @ @ @ @ @ @ @ @ @ @ @ @ @ @ @ @ @ @ ",
"@ @ @ @ @ @ @ @ @ @ @ @ @ @ @ @ @ @ @ @ ",
"@ @ @ @ @ @ @ @ @ @ @ @ @ @ @ @ @ @ @ @ ",
"@ @ @ @ @ @ @ @ @ @ @ @ @ @ @ @ @ @ @ @ ",
"@ @ @ @ @ @ @ @ @ @ @ @ @ @ @ @ @ @ @ @ ",
"@ @ @ @ @ @ @ I J K K L M @ @ @ @ @ @ @ ",
"@ @ @ @ @ I N O O O O O P Q @ @ @ @ @ @ ",
"@ @ @ @ @ R O O O O O O O O S @ @ @ @ @ ",
"@ @ @ @ @ T O U L V W X O O Y @ @ @ @ @ ",
"@ @ @ @ @ @ S Z @ @ @ W O O `  .@ @ @ @ ",
"@ @ @ @ @ @ @ @ @ @ @ ..O O O +.@ @ @ @ ",
"@ @ @ @ @ @ @ @ @ @ @ @.O O #.@ @ @ @ @ ",
"@ @ @ @ @ @ @ @ @ @ $.%.O O &.@ @ @ @ @ ",
"@ @ @ @ @ @ @ @ @  .*.O O =.-.@ @ @ @ @ ",
"@ @ @ @ @ @ @ @ ;.>.O O ,.'.@ @ @ @ @ @ ",
"@ @ @ @ @ @ @  .).O O ` !.@ @ @ @ @ @ @ ",
"@ @ @ @ @ @ +.~.O O ` {.@ @ @ @ @ @ @ @ ",
"@ @ @ @ @ -.].O O O ^././././.(.@ @ @ @ ",
"@ @ @ @ @ _.O O O O O O O O O :.@ @ @ @ ",
"@ @ @ @ @ O O O O O O O O O O :.@ @ @ @ ",
"@ @ @ @ @ ).<.<.<.<.<.<.<.<.<.T @ @ @ @ ",
"@ @ @ @ @ @ @ @ @ @ @ @ @ @ @ @ @ @ @ @ ",
"@ @ @ @ @ @ @ @ @ @ @ @ @ @ @ @ @ @ @ @ ",
"@ @ @ @ @ @ @ @ @ @ @ @ @ @ @ @ @ @ @ @ ",
"@ @ @ @ @ @ @ @ @ @ @ @ @ @ @ @ @ @ @ @ ",
"@ @ @ @ @ @ @ @ @ @ @ @ @ @ @ @ @ @ @ @ ",
"[.@ @ @ @ @ @ @ @ @ @ @ @ @ @ @ @ @ @ [.",
"}.|.@ @ @ @ @ @ @ @ @ @ @ @ @ @ @ @ 1.}."};
